<?xml version="1.0" encoding="utf-8"?>
<!-- Generator: Adobe Illustrator 22.1.0, SVG Export Plug-In . SVG Version: 6.00 Build 0)  -->
<svg version="1.1" id="レイヤー_1" xmlns="http://www.w3.org/2000/svg" xmlns:xlink="http://www.w3.org/1999/xlink" x="0px"
	 y="0px" viewBox="0 0 143 42" style="enable-background:new 0 0 143 42;" xml:space="preserve">
<style type="text/css">
	.st0{fill:#390E0C;}
	.st1{filter:url(#Adobe_OpacityMaskFilter);}
	.st2{fill:#FFFFFF;}
	.st3{mask:url(#mask-2_1_);fill:#390E0C;}
	.st4{filter:url(#Adobe_OpacityMaskFilter_1_);}
	.st5{mask:url(#mask-4_1_);fill:#390E0C;}
	.st6{filter:url(#Adobe_OpacityMaskFilter_2_);}
	.st7{mask:url(#mask-6_1_);fill:#390E0C;}
	.st8{filter:url(#Adobe_OpacityMaskFilter_3_);}
	.st9{mask:url(#mask-8_1_);fill:#390E0C;}
</style>
<path id="Fill-2" class="st0" d="M38.4,2.5l9.1,38.4h14.4L52.9,2.5H38.4z M39.1,3.1h13.3l8.8,37.3H48L39.1,3.1z"/>
<path id="Fill-4" class="st0" d="M19.4,2.5l9.1,38.4h14.4L33.8,2.5H19.4z M20.1,3.1h13.3l8.8,37.3H29L20.1,3.1z"/>
<path id="Fill-6" class="st0" d="M0.4,2.5l9.1,38.4h14.4L14.8,2.5H0.4z M1.1,3.1h13.3l8.8,37.3H9.9L1.1,3.1z"/>
<g id="Group-19" transform="translate(0.000000, 2.462645)">
	<g id="Group-9">
		<g id="Clip-8">
		</g>
		<defs>
			<filter id="Adobe_OpacityMaskFilter" filterUnits="userSpaceOnUse" x="-7.1" y="10.5" width="26.8" height="27">
				<feColorMatrix  type="matrix" values="1 0 0 0 0  0 1 0 0 0  0 0 1 0 0  0 0 0 1 0"/>
			</filter>
		</defs>
		<mask maskUnits="userSpaceOnUse" x="-7.1" y="10.5" width="26.8" height="27" id="mask-2_1_">
			<g class="st1">
				<polyline id="path-1_1_" class="st2" points="0.4,0.1 9.5,38.5 26,38.5 16.9,0.1 				"/>
			</g>
		</mask>
		<path id="Fill-7" class="st3" d="M17.3,35.9c0,0,0.2,0.1,0.4,0c0,0,0-0.1,0-0.1s0.3,0.1,0.3,0c0-0.1,0.1-0.1,0.1-0.2
			c0-0.1-0.1-0.3-0.1-0.6c-0.1-0.3-0.1-0.6-0.1-0.8c-0.1-0.2-0.3-0.8-0.3-0.8S18,33.1,18,33c0-0.1-0.2-0.4-0.2-0.4v-0.1
			c0,0,0.1,0,0.1-0.3c0-0.3-0.2-1.4-0.2-1.7c0-0.3,0-0.6-0.1-0.8c-0.1-0.2-0.1-0.4-0.2-0.4c0,0,0-0.9,0.1-1.6c0.1-0.6,0.1-0.7,0-0.8
			c0,0,0.1-0.4-0.1-0.4c0,0,0-0.2,0-0.5c0-0.3-0.1-0.3-0.1-0.3s0-0.4-0.1-0.4c-0.1-0.1-0.2-0.1-0.2-0.1s0.1-0.6,0-0.7
			c0,0,0.2-0.5,0.1-0.7c0,0,0.1-0.2,0-0.3c0,0,0.3,0,0-0.7c0,0,0.1-0.7-0.1-0.8c0,0,0-0.9-0.3-1.2c-0.3-0.3-0.5-0.4-0.7-0.7
			c-0.2-0.2-0.5-0.6-0.6-0.6l-0.1-0.2c0,0,0.2,0,0.4-0.2c0.2-0.2,0.5-0.7,0.7-1c0.3-0.4,0.4-0.5,0.4-1.3c0,0,0.3-0.2,0.2-0.7
			c0,0,0.1,0,0.1-1.1c0-0.1,0-0.2,0-0.4h0v-0.3h0.1v0.2h0.1v-0.4l0.1-0.1v-0.3l0.1-0.2c0,0,0.1,0,0.1,0v0.8l0.1,0.1l0.1,0.1h0.1
			v-0.4l0.1,0.4l0.1-0.1l0.1,0.1v-0.1H18v0.1h0.1V14h0.1v0.6c0,0,0.1,0,0.1,0v-0.1h0.1v-0.9h0.1v-0.3H17c0-0.1,0-0.1,0-0.2
			c0.2-0.1,0.3-0.2,0.5-0.4c0,0,0.1,0,0.1,0V13h0.2v-0.4c0.3-0.1,0.7-0.1,1,0c0.1,0,0.2,0.1,0.3,0c-0.1-0.1-0.3-0.2-0.5-0.3
			c0.3-0.1,0.7,0,0.9,0.2c0.1,0.1,0.2,0.1,0.2,0c-0.1-0.1-0.2-0.1-0.3-0.2s-0.2-0.3-0.1-0.3c-0.3,0-0.6-0.1-1,0c0,0,0.1-0.1,0-0.2
			c-0.2,0.1-0.4,0.2-0.6,0.3c0,0-0.1,0-0.1,0c0,0-0.1-0.1-0.1-0.1c-0.1-0.1-0.3-0.1-0.4,0.1c-0.1,0-0.3,0-0.4-0.1
			c0-0.1,0-0.2,0.1-0.2c0,0-0.1,0-0.1,0c-0.1-0.1,0.1-0.4,0-0.4c-0.1,0-0.2,0.2-0.3,0.1c0-0.1,0-0.2,0-0.4c-0.1,0-0.1,0.1-0.2,0.1
			c-0.1,0-0.1-0.1-0.1-0.1c-0.1-0.1-0.3,0-0.3,0.1c-0.1-0.1-0.1-0.2,0-0.3c-0.1,0-0.1-0.1-0.2-0.1c0,0.1,0,0.1-0.1,0.2
			c0-0.2-0.1-0.4-0.3-0.4c0,0,0-0.1,0-0.1c0,0-0.1,0-0.1,0c-0.1-0.1-0.2-0.1-0.4-0.1c-0.1,0-0.1,0-0.2,0.1c0,0-0.1,0.1,0,0.2
			c0,0,0.1,0,0.2,0.1c0.1,0,0.1,0.1,0.1,0.2c0,0.1-0.1,0.1-0.2,0.1c0,0.1-0.1,0.2-0.2,0.2c0-0.1,0-0.2,0-0.3c-0.1,0-0.2,0-0.2,0.1
			c0-0.1,0-0.2,0.1-0.3c-0.1,0-0.2-0.1-0.3-0.2c-0.1,0-0.2,0-0.3,0.1c0,0,0.1,0.1,0.1,0.1c-0.1,0-0.1,0.1-0.2,0.1
			c0.1-0.1-0.1-0.3-0.2-0.3c-0.2-0.1-0.5,0-0.7,0.1c0,0.1-0.1,0.3-0.3,0.2c0.1-0.1,0-0.2-0.1-0.2c0,0.1,0,0.1,0,0.2c0,0-0.2,0-0.1,0
			c-0.1,0.1,0,0.2,0,0.2c-0.1,0-0.2,0-0.2,0.1c0,0,0,0.1,0,0.1c0,0-0.1,0-0.1,0c-0.2,0-0.5,0-0.7-0.1l0.2,0.2c-0.1,0-0.2,0-0.2,0.1
			c0,0.1,0.1,0.1,0.1,0.1c0,0.2,0,0.4,0.1,0.6c0.1-0.1,0.1-0.2,0.1-0.3c0,0.1,0.1,0.1,0.1,0.1c0-0.1,0.1-0.3,0.2-0.2
			c0,0-0.1-0.1-0.1-0.1c0-0.1,0.1-0.1,0.1-0.1c-0.1,0.1,0.1,0.3,0.2,0.3c0,0.1,0,0.2-0.2,0.2c0,0-0.1,0-0.1,0c0,0-0.1,0.1-0.1,0.1
			l-0.3,0.6c0.1-0.1,0.2-0.1,0.3-0.2c0.1,0-0.1,0.2,0,0.3c0,0,0,0,0,0c-0.6,0.6-1.2,1.4-1.2,1.7h-0.4v0.1h0.4
			c0.1,0.6,0.5,2.5,0.7,2.6C11.5,17.3,12,17,12,17s0.2,0.9,0.4,1c0.2,0.1,0.4,0.1,0.4,0.1s-0.4,0.8-0.6,1c-0.2,0.2-0.9,0.2-0.9,0.2
			s-0.5-0.3-0.9-0.3L10,19.2c0,0-0.3,0-0.4,0.1l-0.1,0.1c0,0-1.2,0.2-2.2,0.8c-1.1,0.6-3.7,2.7-3.8,2.9c-0.1,0.2-0.2,1.1-0.1,1.8
			c0.1,0.7,0.2,1.3,0.1,1.7c0,0.4-0.2,0.4-0.1,1.3c0.1,0.9,0.2,1.3,0.1,1.6c0,0.3-0.3,2.3-0.3,2.3s-2.1,0.4-2.7,0.4
			c-0.6,0.1-1.2,0.1-1.3,0.1c0,0,0,0.1,0,0.1s-0.3-0.2-0.8,0c-0.5,0.2-5.3,2.2-5.3,2.4c0,0.1,0.1,0.1,0.1,0.1s-0.3,0.2-0.3,0.2
			c0,0.1,0.1,0.1,0.4,0.1c0.3,0,2,0.2,2.5,0.1c0.5,0,1.7,0,1.7,0s-0.1,0.3-0.2,0.5c-0.1,0.2-0.3,0.7,0.3,1c0.6,0.3,2.3,0.5,5,0.2
			c2.7-0.3,5.7-0.4,6.8-1c0,0,0.3,0.1,1-0.1c0.7-0.2,1.3-0.4,1.3-0.4s1.1,0,1.6-0.1c0.6-0.1,2-0.2,2.3-0.6l0.1,0.1
			c0,0,0,0.1,0.1,0.2c0.1,0.1,0.4,0.4,0.5,0.4c0.1,0,0.1-0.1,0.1-0.1s0.2,0.2,0.3,0.3C16.9,36,17.1,36,17.3,35.9
			C17.3,36,17.3,35.9,17.3,35.9"/>
	</g>
	<g id="Group-12">
		<g id="Clip-11">
		</g>
		<defs>
			<filter id="Adobe_OpacityMaskFilter_1_" filterUnits="userSpaceOnUse" x="17.1" y="35.2" width="3.1" height="1.5">
				<feColorMatrix  type="matrix" values="1 0 0 0 0  0 1 0 0 0  0 0 1 0 0  0 0 0 1 0"/>
			</filter>
		</defs>
		<mask maskUnits="userSpaceOnUse" x="17.1" y="35.2" width="3.1" height="1.5" id="mask-4_1_">
			<g class="st4">
				<polyline id="path-3_1_" class="st2" points="0.4,0.1 9.5,38.5 26,38.5 16.9,0.1 				"/>
			</g>
		</mask>
		<path id="Fill-10" class="st5" d="M20.2,35.3c0-0.1-0.2-0.1-0.3,0c-0.1,0.1-0.6,0.3-0.8,0.4c-0.2,0.1-0.7,0.1-1,0.3
			c-0.4,0.2-0.9,0.5-0.9,0.5c0,0,0.1,0.2,0.1,0.2c0,0,0.1,0.1,0.1,0.1c0,0,1.6-0.7,1.7-0.7c0.1,0,0.3-0.2,0.4-0.3
			c0.2-0.1,0.6-0.2,0.6-0.2C20.2,35.4,20.2,35.3,20.2,35.3"/>
	</g>
	<g id="Group-15">
		<path id="Fill-13" class="st0" d="M8.2,2.9c0,0,0.5,0.1,0.6,0.2c0.1,0,0.2,0.1,0.3,0.2c0,0,0,0,0,0c0,0-0.3,0.1-0.6,0.3
			c0,0,0.2,0.1,0.3,0.1c0,0-0.3,0.2-0.3,0.4S8.3,4.6,8.3,4.6S8.8,4.4,9,4.3c0.1-0.1,0.2-0.2,0.2-0.2s0,0.4,0.4,0.6
			c0.3,0.2,0.6,0.7,0.6,0.7s0.2-0.5,0.2-0.6c0-0.2,0.1-0.5,0-0.7c0.3,0.3,0.6,0.5,1.1,0.7c0.5,0.2,0.9,0.6,0.9,0.6s0-0.1,0-0.2
			c0-0.1-0.4-1.2-0.6-1.3c-0.2-0.1-0.4-0.2-0.4-0.2s0.5,0,0.7,0c0.2-0.1,0.5-0.2,0.6-0.2c0.1,0-0.1-0.1-0.2-0.1
			c-0.2,0-0.7-0.3-1-0.4c-0.3,0-0.8,0-0.8,0s0.1-0.1,0.1-0.2c0-0.1,0.1-0.3,0.1-0.2c-0.1,0-0.6,0.1-0.7,0.2C9.8,2.9,9.6,3.1,9.6,3.1
			S9.5,3,9.5,2.9c0,0-0.2,0.1-0.3,0.3C9.1,3.2,9,3.1,8.9,3.1C8.7,3,8.3,2.9,8.2,2.9C8.2,2.8,8.2,2.8,8.2,2.8s-0.1,0,0,0.1
			C8.2,2.9,8.2,2.9,8.2,2.9"/>
	</g>
	<path id="Fill-16" class="st0" d="M4.7,12.4c0.2,0,0.7,0.1,0.9,0c0.2,0,0.5-0.2,0.5-0.2c0,0-0.4,0.2-0.6,0.5s-0.3,0.6-0.4,0.7
		c-0.1,0.1-0.3,0.3-0.3,0.3c0,0,0.4-0.2,0.5-0.3c0.2-0.1,0.6-0.2,0.8-0.4c0.2-0.3,0.3-0.5,0.3-0.5S6.4,13,6.4,13.2
		c0.1,0.2,0.2,0.5,0.2,0.7c0,0.1,0,0.3,0.1,0.3c0,0,0.1-0.4,0.2-0.5c0.1-0.1,0.4-0.7,0.3-1c-0.1-0.2-0.1-0.4-0.1-0.4
		c0,0,0.2,0.4,0.4,0.5C7.6,13,8,13.2,8,13.3c0,0.1,0.1,0,0.1,0c0,0-0.2-0.3-0.2-0.4c0-0.1-0.1-0.6-0.5-0.9c0,0,0,0,0.1,0
		c0.1,0,0.3,0,0.5,0c0.2,0,0.3,0,0.3,0c0,0-0.3-0.1-0.4-0.2c-0.1-0.1-0.4-0.3-0.8-0.2l-0.1,0c0,0,0-0.4-0.1-0.6
		c-0.1-0.2-0.4-0.4-0.4-0.5c0-0.1-0.1-0.2-0.1-0.2c0,0,0,0,0,0c0,0,0.1,0.2,0.1,0.4c0,0.1,0,0.4,0.1,0.5c0,0-0.4-0.3-0.6-0.3
		c-0.2,0-0.5-0.1-0.7-0.1c-0.2,0-0.3-0.1-0.3-0.1c0,0,0.3,0.2,0.4,0.3c0.1,0.1,0.4,0.4,0.8,0.5c0,0-0.6,0-0.8,0.2
		C5,12,4.6,12.3,4.4,12.3c-0.1,0.1-0.2,0-0.2,0.1S4.5,12.4,4.7,12.4"/>
</g>
<g id="Group-22" transform="translate(18.486692, 0.287740)">
	<g id="Clip-21">
	</g>
	<defs>
		<filter id="Adobe_OpacityMaskFilter_2_" filterUnits="userSpaceOnUse" x="5.6" y="0.3" width="13.4" height="38.9">
			<feColorMatrix  type="matrix" values="1 0 0 0 0  0 1 0 0 0  0 0 1 0 0  0 0 0 1 0"/>
		</filter>
	</defs>
	<mask maskUnits="userSpaceOnUse" x="5.6" y="0.3" width="13.4" height="38.9" id="mask-6_1_">
		<g class="st6">
			<polygon id="path-5_1_" class="st2" points="0.4,0.3 10,40.6 24.4,40.6 14.9,0.3 			"/>
		</g>
	</mask>
	<path id="Fill-20" class="st7" d="M12.4,7.5c-0.7,0-1.2,0.5-1.2,1.2c0,0.7,0.5,1.2,1.2,1.2c0.7,0,1.2-0.5,1.2-1.2
		C13.5,8.1,13,7.5,12.4,7.5z M17.2,31.6l1.2,7.7h-1.7l-3.1-6.3h-2.4L8,39.2H6.3l1.2-7.7H6.8l-1.2-5.3h2.8l2.3-14l-2.9-1.2l3.3-1.3
		l0-0.3L9.4,4.4h0V3.7h1.7V1.7h0.4V1h0.3V0.3h1V1h0.3v0.7h0.4v1.9h1.7v0.8h0l-1.7,5.3l0,0.1l3.3,1.3L14,12.3l2.3,14h2.8l-1.2,5.3
		H17.2z"/>
</g>
<g id="Group-25" transform="translate(38.060837, 2.462645)">
	<g id="Clip-24">
	</g>
	<defs>
		<filter id="Adobe_OpacityMaskFilter_3_" filterUnits="userSpaceOnUse" x="0.3" y="2.5" width="32.5" height="34.7">
			<feColorMatrix  type="matrix" values="1 0 0 0 0  0 1 0 0 0  0 0 1 0 0  0 0 0 1 0"/>
		</filter>
	</defs>
	<mask maskUnits="userSpaceOnUse" x="0.3" y="2.5" width="32.5" height="34.7" id="mask-8_1_">
		<g class="st8">
			<polyline id="path-7_1_" class="st2" points="0.4,0.1 9.5,38.5 34.7,38.5 25.7,0.1 			"/>
		</g>
	</mask>
	<path id="Fill-23" class="st9" d="M31.4,30.6c-1.1-0.1-2.1,0-2.8,0.2c-0.1-0.2-0.2-0.4-0.4-0.6c-0.3-0.4-0.6-2.6-1.7-3.7
		c-1.1-1.1-1.6-0.7-1.6-0.7c-0.8-0.5-2.8-0.4-2.8-0.4l-0.5-2.5l0.2-0.2c1.3-0.2,2.1-1.5,2.2-2.1c0.1-0.6,0.3-1.1,0.3-1.1
		c0.2-0.5,0.1-1,0.2-1.2c0.1-0.1,0.2-1.1,0.1-1.3c-0.1-0.3-0.3-0.4-0.5-0.3c0,0,0,0,0,0c0-0.4,0.1-0.8,0.1-1.2
		c0.1-0.2,0.3-0.6,0.3-0.6s0.2-0.1,0.6-0.8c0.4-0.7,0.2-1.2-0.1-1.2c-0.2,0-0.5,0.3-0.7,0.6c0-0.1,0-0.2-0.1-0.3
		c-0.2-0.1-0.5-0.1-0.7,0.4c0,0,0,0.1,0,0.1c0-0.1,0-0.3,0-0.4c0-0.6-0.1-0.6-0.5-0.6c-0.3,0-0.6,0.9-0.6,0.9
		c-0.1-0.2-0.3-0.2-0.5-0.2c-0.3,0-0.5,1.4-0.6,1.7c-0.1,0.3-0.1,0.8-0.1,1c0,0.1,0,1,0,1c-0.2,0.1-0.2,0.8-0.3,0.8
		c-0.2,0.1-0.6,0.7-0.6,0.7c-0.1-0.3-0.5-0.3-0.5-0.3s-0.2-0.3-0.4-0.8c-0.2-0.5-0.8-0.7-0.8-0.7c-0.3-0.4-2.1-1.6-2.1-1.6
		c0-0.1-0.2-0.4-0.2-0.4c0.2-0.1,0.1-0.7,0.1-0.7c0.7,0.1,0.7-0.3,0.7-0.3c1.4-0.3,0.9-0.4,1.2-1c0.4-0.5,0.5-3.2,0.5-3.2
		c0.2-0.2,0.1-0.5,0.1-0.6c0-0.1,0.2-0.1,0.3-0.4c0-0.1,0-0.2,0.1-0.4c0.1,0,0.1,0,0.2-0.1c0.1-0.1,0-0.2,0-0.3c0.1,0,0.2,0,0.2-0.1
		c0,0,0-0.1,0-0.2c0,0,0,0,0,0c0.1-0.1,0-0.2,0-0.3c0,0,0.1,0,0.1-0.1l0,0l0-0.1c0-0.1,0-0.1-0.1-0.2c0.1-0.1,0.1-0.2,0.1-0.3
		c0,0,0-0.1-0.1-0.1c0,0,0-0.1,0-0.1c0,0,0.1,0,0.1,0c0,0,0,0,0,0c0,0-0.1-0.2-0.1-0.3c0-0.1-0.1-0.1-0.1-0.1c0-0.1,0-0.2,0-0.2
		c0,0,0,0-0.1-0.1c0-0.1,0-0.2-0.1-0.3c0,0-0.1,0-0.1,0c0-0.1,0-0.1,0-0.1c0,0-0.1-0.1-0.1,0c0-0.1,0-0.2,0-0.2c0-0.1-0.2-0.1-0.3,0
		c0,0,0,0-0.1-0.1c0,0,0,0,0,0c0.1-0.1,0-0.3,0-0.4c0,0-0.1,0-0.1,0c0-0.1,0-0.1-0.1-0.2c0,0-0.1,0-0.1,0c0-0.1,0-0.1-0.1-0.2
		c0-0.1-0.1,0-0.2,0c0-0.1,0-0.2-0.1-0.3C18,3.9,18,3.9,18,3.8c0,0,0,0,0,0c0,0,0,0,0,0c0,0-0.1-0.1-0.1-0.1c0,0-0.1-0.1-0.1-0.1
		c0,0-0.1,0-0.2,0.1c0-0.1-0.1-0.2-0.1-0.3c-0.1,0-0.1,0-0.2,0.1c0-0.1-0.1-0.2-0.2-0.3c-0.1,0-0.1,0-0.2,0.1c0,0,0,0,0,0
		c0-0.1-0.1-0.3-0.2-0.3c0,0-0.1,0-0.2,0.1c0-0.1-0.1-0.2-0.2-0.2c0,0-0.1,0-0.1,0c0,0,0,0,0,0c0,0-0.1,0-0.2,0
		c0-0.1-0.1-0.2-0.2-0.2c-0.1,0-0.1,0-0.2,0.1c0-0.1-0.2-0.2-0.2-0.2c-0.1,0-0.1,0.1-0.2,0.2c0,0,0,0,0,0c0-0.1-0.1-0.2-0.2-0.2
		l-0.1,0l-0.1,0c-0.1,0-0.1,0.1-0.1,0.2c0,0,0,0,0,0c0-0.1-0.2-0.2-0.3-0.1c-0.1,0-0.1,0.1-0.1,0.2c0,0-0.1,0-0.1,0
		c-0.1-0.1-0.2-0.1-0.3-0.1C14,2.7,14,2.8,14,2.8c-0.1,0-0.2,0-0.3,0c-0.1,0-0.1,0.1-0.1,0.2c0,0,0,0-0.1,0c-0.1-0.1-0.3-0.1-0.3,0
		c-0.1,0-0.1,0.1-0.1,0.2c-0.1,0-0.2,0-0.3,0c-0.1,0-0.1,0.1,0,0.2c-0.1,0-0.2,0-0.3,0c-0.1,0-0.1,0.2,0,0.2c0,0,0,0,0,0
		c-0.1-0.1-0.3,0-0.4,0c-0.1,0-0.1,0.1,0,0.2c-0.1,0-0.3,0-0.3,0.1c-0.1,0.1,0,0.2,0,0.2c0,0,0,0,0,0c-0.1-0.1-0.3,0-0.4,0
		c-0.1,0,0,0.1,0,0.2c0,0,0,0,0,0c-0.1,0-0.3,0-0.3,0.1c0,0,0,0.1,0,0.2c0,0,0,0,0,0C11.1,5,11,5,10.9,5.1c0,0,0,0.1,0,0.2
		c0,0,0,0,0,0c-0.1,0-0.2,0-0.2,0.1l-0.1,0.1l0,0c0,0,0,0.1,0.1,0.2c-0.1,0-0.3,0.1-0.3,0.1c0,0.1,0,0.2,0.1,0.2l0,0
		c-0.1,0-0.3,0.1-0.3,0.2c0,0.1,0,0.1,0.1,0.2c-0.1,0-0.2,0.2-0.2,0.2c0,0.1,0,0.2,0,0.2c0,0,0.1,0,0.2,0c0,0,0,0,0,0c0,0,0,0,0,0
		c0,0,0,0,0,0C10.1,6.9,10,7,10,7.1l0,0.1l0,0.1c0,0.1,0.1,0.1,0.2,0.1C10,7.4,10,7.5,10,7.5c0,0.1,0,0.1,0,0.2c0,0,0.1,0,0.2,0.1
		c0,0,0,0,0,0C10,7.8,9.9,8,9.9,8.1c0,0.1,0.1,0.1,0.1,0.2c-0.1,0-0.2,0.1-0.2,0.1l0,0.1l0,0.1c0,0.1,0.1,0.1,0.2,0.2c0,0,0,0,0,0
		c-0.1,0-0.2,0.2-0.2,0.3C9.8,9,9.9,9.1,10,9.1c-0.1,0-0.2,0.2-0.2,0.3c0,0.1,0.1,0.2,0.2,0.2v0c0,0,0,0,0,0c-0.1,0-0.2,0.2-0.2,0.3
		C9.8,9.9,9.9,10,10,10v0c-0.1,0-0.2,0.2-0.2,0.3c0,0.1,0.1,0.1,0.2,0.1c-0.1,0-0.2,0.2-0.2,0.3c0,0.1,0.1,0.1,0.2,0.1v0
		c-0.1,0.1-0.2,0.2-0.1,0.3c0,0.1,0.1,0.1,0.1,0.1v0c0,0,0,0-0.1,0c-0.1,0.1,0,0.3,0,0.4c0,0,0.1,0,0.1,0c0,0,0,0,0,0l0,0
		c0,0-2-0.5-3.2,0.1c-1.2,0.7-2.4,2.4-2.9,4.3c-0.5,1.9-0.5,1.6-0.7,2.8c-0.2,1.2-0.2,2.2-0.2,2.2s-0.3,1.3-0.3,2.3
		c0,1,0.4,1.9,0.4,1.9s-0.3,1.8-0.2,2c0.1,0.2,0.5,0.5,0.5,0.5C3.4,29.2,4,29.5,4,29.5l0.1,1.9c-0.4,0.2-0.8,0.5-1.1,1
		c-0.6-0.4-1.2-0.7-1.6-0.6c-1,0.2-1.1,0.3-1.2,0.6c0,0.2,0.6,0.1,1.3,1c0.7,0.9-0.1,1.5,0.3,2.2s0.3,1,1.3,1.3c0.2,0,0.4,0,0.7,0
		C5.2,36.8,6,36.5,6,36.5s0.9,0.3,3.7,0.6c2.8,0.3,5-0.7,5-0.7c1.1,0.9,5.6,0.3,7.7,0.5c2.1,0.2,4.5-0.8,4.5-0.8
		c3.4,0.2,4.4-2.4,4.6-3.4C31.7,31.9,34.4,31,31.4,30.6"/>
</g>
<g id="Group-34" transform="translate(65.247148, 3.006371)">
	<path id="Fill-26" class="st0" d="M28.2,12.7h3V0.4h-3V12.7z M37.9,9.6c0,0.1,0,0.3,0,0.4c-0.1,0.5-0.6,0.8-1.2,0.8
		c-0.5,0-0.9-0.3-0.9-0.9c0-0.9,0.9-1.2,2.1-1.1V9.6z M41,12.8c-0.1-0.5-0.1-1.3-0.1-2.2l0.1-3c0-2.1-1.1-3.6-4.1-3.6
		c-1.6,0-2.9,0.5-3.5,0.8l0.6,2c0.6-0.4,1.3-0.7,2.3-0.7c1.4,0,1.6,0.3,1.6,0.8c-3.2,0-5.1,1-5.1,3.4c0,1.4,1.1,2.8,2.9,2.8
		c1.1,0,1.9-0.4,2.5-1.1h0.1l0.2,0.9H41z M23.2,9.6c0,0.1,0,0.3,0,0.4c-0.1,0.5-0.6,0.8-1.2,0.8c-0.5,0-0.9-0.3-0.9-0.9
		c0-0.9,0.9-1.2,2.1-1.1V9.6z M26.3,12.8c-0.1-0.5-0.1-1.3-0.1-2.2l0.1-3c0-2.1-1.1-3.6-4.1-3.6c-1.6,0-2.9,0.5-3.5,0.8l0.6,2
		c0.6-0.4,1.3-0.7,2.3-0.7c1.4,0,1.6,0.3,1.6,0.8c-3.2,0-5.1,1-5.1,3.4c0,1.4,1.1,2.8,2.9,2.8c1.1,0,1.9-0.4,2.5-1.1h0.1l0.2,0.9
		H26.3z M16.8,10.4c-0.4,0.2-0.9,0.2-1.6,0.1c-1.3-0.1-1.9-1-1.9-2.1c0-1.4,0.5-1.9,1.8-2.2c0.7-0.1,1.2,0.1,1.6,0.3l0.6-2.2
		C16.7,4.1,15.9,4,15.1,4c-3.4,0-4.9,2.1-4.9,4.6c0,2.7,1.5,4.3,4.4,4.3c1.1,0,1.9-0.2,2.4-0.4L16.8,10.4z M0.4,12.2
		C1.1,12.6,2.5,13,3.9,13c3.4,0,4.9-1.7,4.9-3.7c0-1.7-0.8-2.8-3-3.6C4.2,5.2,3.6,5,3.6,4.3c0-0.6,0.6-1,1.8-1
		c1.3,0,1.8,0.3,2.3,0.6l0.8-2.3C7.7,1.2,6.6,0.9,5.2,0.9c-2.9,0-4.7,1.6-4.7,3.6c0,1.7,1.2,2.8,3.2,3.5c1.5,0.5,2,0.8,2,1.6
		c0,0.5-0.4,0.9-1.7,0.9c-1.2,0-2.3-0.4-3-0.8L0.4,12.2z"/>
	<path id="Fill-28" class="st0" d="M56.3,14.3c-0.9,0-1.5,0.6-1.5,1.4c0,0.8,0.6,1.4,1.4,1.4c0.9,0,1.5-0.6,1.5-1.4
		C57.8,14.9,57.2,14.3,56.3,14.3z M54.9,27h2.7v-8.8h-2.7V27z M50.1,23.8c0,0.2,0,0.3-0.1,0.5c-0.2,0.6-0.8,1-1.4,1
		c-0.6,0-1.1-0.3-1.1-1c0-1,1.1-1.4,2.6-1.4V23.8z M52.8,21.8c0-2.1-0.9-3.8-3.9-3.8c-1.6,0-2.8,0.5-3.4,0.8l0.5,1.8
		c0.6-0.4,1.5-0.7,2.4-0.7c1.4,0,1.6,0.7,1.6,1.2v0.1c-3.1,0-5.2,1.1-5.2,3.4c0,1.4,1.1,2.7,2.8,2.7c1,0,1.9-0.4,2.5-1.1h0.1
		l0.2,0.9h2.5c-0.1-0.5-0.1-1.3-0.1-2.1V21.8z M37.1,26.6c0.7,0.4,1.7,0.6,2.8,0.6c2.5,0,3.8-1.2,3.8-2.9c0-1.3-0.7-2.1-2.4-2.7
		c-1.1-0.4-1.4-0.6-1.4-1s0.4-0.7,1-0.7c0.7,0,1.5,0.3,1.9,0.5l0.5-1.9c-0.5-0.3-1.4-0.5-2.5-0.5c-2.2,0-3.6,1.2-3.6,2.9
		c0,1,0.7,2,2.5,2.7c1,0.3,1.3,0.6,1.3,1c0,0.5-0.3,0.7-1.2,0.7c-0.8,0-1.9-0.3-2.4-0.6L37.1,26.6z M27,27h2.7v-5.1
		c0-0.3,0-0.5,0.1-0.7c0.2-0.5,0.6-1,1.4-1c1,0,1.4,0.8,1.4,1.9V27h2.7v-5.2c0-2.6-1.4-3.8-3.2-3.8c-1.5,0-2.4,0.8-2.7,1.4h-0.1
		l-0.1-1.2H27C27,19,27,19.9,27,21V27z M22.2,23.8c0,0.2,0,0.3-0.1,0.5c-0.2,0.6-0.8,1-1.4,1c-0.6,0-1.1-0.3-1.1-1
		c0-1,1.1-1.4,2.6-1.4V23.8z M24.9,21.8c0-2.1-0.9-3.8-3.9-3.8c-1.6,0-2.8,0.5-3.4,0.8l0.5,1.8c0.6-0.4,1.5-0.7,2.4-0.7
		c1.4,0,1.6,0.7,1.6,1.2v0.1c-3.1,0-5.2,1.1-5.2,3.4c0,1.4,1.1,2.7,2.8,2.7c1,0,1.9-0.4,2.5-1.1h0.1l0.2,0.9H25
		c-0.1-0.5-0.1-1.3-0.1-2.1V21.8z M6.5,27h2.7v-4l1-1.3l3,5.3h3.2l-4.2-7l4-5.2h-3.4l-2.7,4c-0.3,0.4-0.6,0.9-0.8,1.3h0v-5.4H6.5V27
		z"/>
	<path id="Fill-29" class="st0" d="M47.2,30v1.4h-0.9v1.5h0.9v2.7c0,0.9,0.2,1.5,0.6,1.9c0.3,0.3,0.9,0.6,1.5,0.6
		c0.6,0,1.1-0.1,1.3-0.2l0-1.5c-0.1,0-0.3,0.1-0.6,0.1c-0.6,0-0.8-0.4-0.8-1.1v-2.4h1.5v-1.5h-1.5v-1.9L47.2,30z M44.4,28.5
		c-0.7,0-1.1,0.4-1.1,1c0,0.6,0.4,1,1.1,1c0.7,0,1.1-0.5,1.1-1C45.5,29,45,28.5,44.4,28.5z M43.4,37.9h2v-6.5h-2V37.9z M32.6,37.9h2
		v-3.8c0-0.2,0-0.3,0.1-0.5c0.1-0.3,0.4-0.7,0.9-0.7c0.6,0,0.9,0.6,0.9,1.4v3.7h2v-3.8c0-0.2,0-0.4,0.1-0.5c0.1-0.4,0.5-0.7,0.9-0.7
		c0.7,0,1,0.5,1,1.5v3.6h2v-3.8c0-1.9-0.9-2.8-2.2-2.8c-0.5,0-0.9,0.1-1.2,0.3c-0.3,0.2-0.6,0.5-0.8,0.8h0c-0.3-0.7-0.9-1.1-1.8-1.1
		c-1.1,0-1.7,0.6-2,1h0l-0.1-0.9h-1.7c0,0.6,0.1,1.3,0.1,2.1V37.9z M21.8,37.9h2v-3.8c0-0.2,0-0.3,0.1-0.5c0.1-0.3,0.4-0.7,0.9-0.7
		c0.6,0,0.9,0.6,0.9,1.4v3.7h2v-3.8c0-0.2,0-0.4,0.1-0.5c0.1-0.4,0.5-0.7,0.9-0.7c0.7,0,1,0.5,1,1.5v3.6h2v-3.8
		c0-1.9-0.9-2.8-2.2-2.8c-0.5,0-0.9,0.1-1.2,0.3c-0.3,0.2-0.6,0.5-0.8,0.8h0c-0.3-0.7-0.9-1.1-1.8-1.1c-1.1,0-1.7,0.6-2,1h0
		l-0.1-0.9h-1.7c0,0.6,0.1,1.3,0.1,2.1V37.9z M20.8,31.4h-2v3.9c0,0.2,0,0.3-0.1,0.4c-0.1,0.3-0.5,0.7-1,0.7c-0.7,0-1-0.6-1-1.5
		v-3.5h-2v3.8c0,2,1,2.8,2.3,2.8c1.2,0,1.8-0.7,2-1.1h0l0.1,0.9h1.8c0-0.5-0.1-1.2-0.1-2.1V31.4z M8.8,37.6c0.5,0.3,1.3,0.5,2.1,0.5
		c1.9,0,2.8-0.9,2.8-2.1c0-1-0.5-1.6-1.8-2c-0.8-0.3-1.1-0.4-1.1-0.7c0-0.3,0.3-0.5,0.8-0.5c0.6,0,1.1,0.2,1.4,0.4l0.4-1.4
		c-0.4-0.2-1.1-0.4-1.8-0.4C10,31.2,9,32.2,9,33.4c0,0.8,0.5,1.5,1.9,2c0.8,0.3,1,0.4,1,0.7c0,0.3-0.3,0.5-0.9,0.5
		c-0.6,0-1.4-0.3-1.7-0.5L8.8,37.6z"/>
	<path id="Fill-30" class="st0" d="M53.6,37.9v-1.2l1.1-1c1.8-1.6,2.7-2.6,2.7-3.5c0-0.7-0.4-1.2-1.4-1.2c-0.7,0-1.3,0.4-1.8,0.7
		l-0.6-1.4c0.6-0.5,1.6-0.9,2.7-0.9c1.9,0,2.9,1.1,2.9,2.6c0,1.4-1,2.5-2.2,3.6l-0.8,0.6v0h3.1v1.6H53.6z"/>
	<path id="Fill-31" class="st0" d="M61.9,33.8c0,1.9,0.4,2.8,1.2,2.8c0.8,0,1.2-0.9,1.2-2.8c0-1.8-0.4-2.8-1.2-2.8
		C62.4,30.9,61.9,31.8,61.9,33.8 M66.3,33.7c0,2.6-1,4.3-3.2,4.3c-2.2,0-3.1-1.9-3.1-4.3c0-2.4,1-4.3,3.2-4.3
		C65.4,29.5,66.3,31.4,66.3,33.7"/>
	<polygon id="Fill-32" class="st0" points="68.7,31.3 68.6,31.3 67.1,32.1 66.7,30.6 68.9,29.6 70.6,29.6 70.6,37.9 68.7,37.9 	"/>
	<path id="Fill-33" class="st0" d="M73.5,31.7c0,0.6,0.5,0.9,1.2,1.1c0.4-0.1,0.8-0.5,0.8-1.1c0-0.5-0.3-1-1-1
		C73.8,30.8,73.5,31.2,73.5,31.7 M75.7,35.7c0-0.7-0.5-1.2-1.3-1.4c-0.6,0.2-1,0.6-1,1.2c0,0.6,0.4,1.2,1.2,1.2
		C75.2,36.7,75.7,36.3,75.7,35.7 M71.4,35.7c0-1,0.6-1.7,1.5-2.1v0c-0.8-0.4-1.2-1.1-1.2-1.8c0-1.4,1.3-2.3,2.9-2.3
		c1.9,0,2.8,1.1,2.8,2.1c0,0.7-0.4,1.4-1.2,1.8v0c0.8,0.3,1.5,1,1.5,2.1c0,1.5-1.3,2.5-3.2,2.5C72.3,38.1,71.4,36.9,71.4,35.7"/>
</g>
</svg>
