<svg viewBox="0 0 161.6 158.7" xmlns="http://www.w3.org/2000/svg" xmlns:xlink="http://www.w3.org/1999/xlink"><pattern id="a" height="28.8" patternUnits="userSpaceOnUse" viewBox="0 0 28.8 28.8" width="28.8"><path d="m0 0h28.8v28.8h-28.8z" fill="none"/><path d="m28.8 33.1a4.3 4.3 0 1 0 -4.3-4.3 4.3 4.3 0 0 0 4.3 4.3z" fill="#eda64e"/><path d="m14.4 33.1a4.3 4.3 0 1 0 -4.3-4.3 4.3 4.3 0 0 0 4.3 4.3z" fill="#eda64e"/><path d="m28.8 18.7a4.3 4.3 0 1 0 -4.3-4.3 4.3 4.3 0 0 0 4.3 4.3z" fill="#eda64e"/><path d="m14.4 18.7a4.3 4.3 0 1 0 -4.3-4.3 4.3 4.3 0 0 0 4.3 4.3z" fill="#eda64e"/><path d="m7.2 25.9a4.3 4.3 0 1 0 -4.3-4.3 4.3 4.3 0 0 0 4.3 4.3z" fill="#eda64e"/><path d="m21.6 25.9a4.3 4.3 0 1 0 -4.3-4.3 4.3 4.3 0 0 0 4.3 4.3z" fill="#eda64e"/><path d="m7.2 11.5a4.3 4.3 0 1 0 -4.3-4.3 4.3 4.3 0 0 0 4.3 4.3z" fill="#eda64e"/><path d="m21.6 11.5a4.3 4.3 0 1 0 -4.3-4.3 4.3 4.3 0 0 0 4.3 4.3z" fill="#eda64e"/><path d="m0 33.1a4.3 4.3 0 0 0 0-8.6 4.3 4.3 0 0 0 -4.3 4.3 4.3 4.3 0 0 0 4.3 4.3z" fill="#eda64e"/><path d="m0 18.7a4.3 4.3 0 0 0 0-8.6 4.3 4.3 0 0 0 -4.3 4.3 4.3 4.3 0 0 0 4.3 4.3z" fill="#eda64e"/><path d="m28.8 4.3a4.3 4.3 0 0 0 4.3-4.3 4.3 4.3 0 0 0 -4.3-4.3 4.3 4.3 0 0 0 -4.3 4.3 4.3 4.3 0 0 0 4.3 4.3z" fill="#eda64e"/><path d="m14.4 4.3a4.3 4.3 0 0 0 4.3-4.3 4.3 4.3 0 0 0 -4.3-4.3 4.3 4.3 0 0 0 -4.3 4.3 4.3 4.3 0 0 0 4.3 4.3z" fill="#eda64e"/><path d="m0 4.3a4.3 4.3 0 0 0 4.3-4.3 4.3 4.3 0 0 0 -4.3-4.3 4.3 4.3 0 0 0 -4.3 4.3 4.3 4.3 0 0 0 4.3 4.3z" fill="#eda64e"/></pattern><path d="m75.2 74.9s-18.2 6.2-27 17.3-14.4 24.6-18.6 28.6-12.5 11.4-11.8 12.9 15.9-7.5 23.4-10.5 26.7-5.1 34.7-13.7a110.6 110.6 0 0 0 15.2-20.8s-9.3 20.5-8.1 28.6 4.2 21.8 4 27.7.3 13.6 1.6 13.7 6.3-16.1 9.3-20.4 18-28.6 16.6-38.8-1.9-15.7-1-14.5 5.9 15.5 12.8 22.2 19.7 16.3 21 19.1 2.4 1.6 2.2.4-5.7-13.6-5.9-17.9-1-24.1-18-38.4a12 12 0 0 1 4.7 2.4c2.8 2.2 12 1.5 19.5 1.7s12.2 1.3 11.8.3-11.9-6.8-14.2-9.6-15.6-14.7-33.4-10.4c0 0 14.7-9.1 17.8-12s16.8-9.9 17.2-11.2-1.1-2.4-1.8-2-15.1 10.4-16.7 11.9-20.1 13.3-20.1 13.3 2.4-16.2-.7-23.6-13.9-19.7-15.2-22.4-4.1-6.7-4.8-8.1-1.8-.4-1 1.3 2.2 10.3 2 15 0 15.4 3.1 20.7c0 0-13.2-12.3-22.5-15s-21.4-5.1-27.9-6.6-11.8-4.8-12-3.3 10.8 9.3 15 13.8 12.9 19.1 28.4 24.2c0 0-22.6-2-33.9 4.4s-29 14.8-34.4 16.7-6.6 1.2-6.5 2.7 10.7.1 17 .8 27.4 5 36.9 4.4c7.7-.5 19.5-4.2 21.3-4.9z" fill="url(#a)"/></svg>