<svg xmlns="http://www.w3.org/2000/svg" xmlns:xlink="http://www.w3.org/1999/xlink" viewBox="0 0 155.2 116.3"><defs><style>.cls-1,.cls-2{fill:none;}.cls-2{stroke:#f58b00;stroke-width:1.44px;}.cls-3{fill:url(#_10_lpi_20_3);}</style><pattern id="_10_lpi_20_3" data-name="10 lpi 20% 3" width="72" height="72" patternTransform="matrix(0.81, -0.81, 0.81, 0.81, 1675.56, 29.93)" patternUnits="userSpaceOnUse" viewBox="0 0 72 72"><rect class="cls-1" width="72" height="72"/><line class="cls-2" x1="71.8" y1="68.4" x2="144.3" y2="68.4"/><line class="cls-2" x1="71.8" y1="54" x2="144.3" y2="54"/><line class="cls-2" x1="71.8" y1="39.6" x2="144.3" y2="39.6"/><line class="cls-2" x1="71.8" y1="25.2" x2="144.3" y2="25.2"/><line class="cls-2" x1="71.8" y1="10.8" x2="144.3" y2="10.8"/><line class="cls-2" x1="71.8" y1="61.2" x2="144.3" y2="61.2"/><line class="cls-2" x1="71.8" y1="46.8" x2="144.3" y2="46.8"/><line class="cls-2" x1="71.8" y1="32.4" x2="144.3" y2="32.4"/><line class="cls-2" x1="71.8" y1="18" x2="144.3" y2="18"/><line class="cls-2" x1="71.8" y1="3.6" x2="144.3" y2="3.6"/><line class="cls-2" x1="-0.3" y1="68.4" x2="72.3" y2="68.4"/><line class="cls-2" x1="-0.3" y1="54" x2="72.3" y2="54"/><line class="cls-2" x1="-0.3" y1="39.6" x2="72.3" y2="39.6"/><line class="cls-2" x1="-0.3" y1="25.2" x2="72.3" y2="25.2"/><line class="cls-2" x1="-0.3" y1="10.8" x2="72.3" y2="10.8"/><line class="cls-2" x1="-0.3" y1="61.2" x2="72.3" y2="61.2"/><line class="cls-2" x1="-0.3" y1="46.8" x2="72.3" y2="46.8"/><line class="cls-2" x1="-0.3" y1="32.4" x2="72.3" y2="32.4"/><line class="cls-2" x1="-0.3" y1="18" x2="72.3" y2="18"/><line class="cls-2" x1="-0.3" y1="3.6" x2="72.3" y2="3.6"/><line class="cls-2" x1="-72.3" y1="68.4" x2="0.3" y2="68.4"/><line class="cls-2" x1="-72.3" y1="54" x2="0.3" y2="54"/><line class="cls-2" x1="-72.3" y1="39.6" x2="0.3" y2="39.6"/><line class="cls-2" x1="-72.3" y1="25.2" x2="0.3" y2="25.2"/><line class="cls-2" x1="-72.3" y1="10.8" x2="0.3" y2="10.8"/><line class="cls-2" x1="-72.3" y1="61.2" x2="0.3" y2="61.2"/><line class="cls-2" x1="-72.3" y1="46.8" x2="0.3" y2="46.8"/><line class="cls-2" x1="-72.3" y1="32.4" x2="0.3" y2="32.4"/><line class="cls-2" x1="-72.3" y1="18" x2="0.3" y2="18"/><line class="cls-2" x1="-72.3" y1="3.6" x2="0.3" y2="3.6"/></pattern></defs><title>leaf10</title><g id="レイヤー_2" data-name="レイヤー 2"><g id="レイヤー_2-2" data-name="レイヤー 2"><path class="cls-3" d="M3.7,111c13.6,4.3,64.5,13.7,97.4-11.5S128.5,46.6,131.5,19c3.4-1.9,19.3-7.7,23.7-9.4L152.3,2c-5.2,2-20.1,9.8-23.6,11.7C105.8.4,52.4-12.7,22.3,23.4S.1,96.4,3.7,111Z"/></g></g></svg>