<svg xmlns="http://www.w3.org/2000/svg" xmlns:xlink="http://www.w3.org/1999/xlink" viewBox="0 0 130.8 183.9"><defs><style>.cls-1{fill:none;}.cls-2{fill:#f2be13;}.cls-3{fill:url(#_10_dpi_60_3);}</style><pattern id="_10_dpi_60_3" data-name="10 dpi 60% 3" width="28.8" height="28.8" patternUnits="userSpaceOnUse" viewBox="0 0 28.8 28.8"><rect class="cls-1" width="28.8" height="28.8"/><path class="cls-2" d="M28.8,33.1a4.3,4.3,0,1,0-4.3-4.3A4.3,4.3,0,0,0,28.8,33.1Z"/><path class="cls-2" d="M14.4,33.1a4.3,4.3,0,1,0-4.3-4.3A4.3,4.3,0,0,0,14.4,33.1Z"/><path class="cls-2" d="M28.8,18.7a4.3,4.3,0,1,0-4.3-4.3A4.3,4.3,0,0,0,28.8,18.7Z"/><path class="cls-2" d="M14.4,18.7a4.3,4.3,0,1,0-4.3-4.3A4.3,4.3,0,0,0,14.4,18.7Z"/><path class="cls-2" d="M7.2,25.9a4.3,4.3,0,1,0-4.3-4.3A4.3,4.3,0,0,0,7.2,25.9Z"/><path class="cls-2" d="M21.6,25.9a4.3,4.3,0,1,0-4.3-4.3A4.3,4.3,0,0,0,21.6,25.9Z"/><path class="cls-2" d="M7.2,11.5A4.3,4.3,0,1,0,2.9,7.2,4.3,4.3,0,0,0,7.2,11.5Z"/><path class="cls-2" d="M21.6,11.5a4.3,4.3,0,1,0-4.3-4.3A4.3,4.3,0,0,0,21.6,11.5Z"/><path class="cls-2" d="M0,33.1a4.3,4.3,0,0,0,0-8.6,4.3,4.3,0,0,0-4.3,4.3A4.3,4.3,0,0,0,0,33.1Z"/><path class="cls-2" d="M0,18.7a4.3,4.3,0,0,0,0-8.6,4.3,4.3,0,0,0-4.3,4.3A4.3,4.3,0,0,0,0,18.7Z"/><path class="cls-2" d="M28.8,4.3A4.3,4.3,0,0,0,33.1,0a4.3,4.3,0,0,0-4.3-4.3A4.3,4.3,0,0,0,24.5,0,4.3,4.3,0,0,0,28.8,4.3Z"/><path class="cls-2" d="M14.4,4.3A4.3,4.3,0,0,0,18.7,0a4.3,4.3,0,0,0-4.3-4.3A4.3,4.3,0,0,0,10.1,0,4.3,4.3,0,0,0,14.4,4.3Z"/><path class="cls-2" d="M0,4.3A4.3,4.3,0,0,0,4.3,0,4.3,4.3,0,0,0,0-4.3,4.3,4.3,0,0,0-4.3,0,4.3,4.3,0,0,0,0,4.3Z"/></pattern></defs><title>leaf2</title><g id="レイヤー_2" data-name="レイヤー 2"><g id="レイヤー_2-2" data-name="レイヤー 2"><path class="cls-3" d="M128.6,91.2s1.1-.4,1-1.2a41.9,41.9,0,0,0-1.7-5.3l1.1-2.3-4.2-5s1.6.4-1.1-4S108,52.4,105,47.3s-5.7-12-5.5-13.1a59,59,0,0,1,6.2-12.7c3.2-4.4,7.8-19.3,7.8-19.3L105.6,0s-.2.6.5,1.6-.1,5.6-.9,8.5-9.1,18-9.8,19.6-12.9,3.2-17,4-14.3,1.2-20.3,2.6S45,39.7,41.2,40.9a61,61,0,0,0-6.6,2.5A26.2,26.2,0,0,0,28,45.2c-2.2,1.1-2.2,2.6-2.2,2.6s-4.9,2-5.8,2.6a15.3,15.3,0,0,0-2.8,3.1c-.4.4-6.6,2.5-6.6,2.5s1.7,1.8.7,1.8-4.4,2.9-4.4,2.9,1.7.9,1.1,1.4L3.4,65.4s1.8.6,1.4,1-1.6,4.2-1.6,4.2l1.2.8L2.7,76l2.3.2L2.1,80.5s2,.7.8,1.5S0,87.4,0,87.4l1.3.5L.7,92.7l1.5.8L1.2,98l1.6,1.3L.9,102.8s2.5.7,2.1,1.1a15.3,15.3,0,0,0-.5,3.2l.3.2.8-2.3,1.5-.6,2,1.8,1.4-.4H10l1.6-2.3,1.5,1.3,1.7-.4,1.3,1.3,1.9-.4.5,2.5,2.3-.7.5,2h2.1l1.5.9.4,1.8,1.2,1.2-1.3,2.5,1.5.9,1.8,1.2-.2,1.7.6,1.6.7,1.7v1.7l-1.7,1.4v1.7l-.4,1.5-.2,1.8-1,1.3-1.1,1.3H22.9l1,3.1-3-.9-.8,1.4L19,138.3l-2.1-.8-.2,3.6-1.7.2-2.2-2.6-1.4.3-.9,1.6a2.7,2.7,0,0,1,.2.9h2.7l1.2,4.6h1.7l1.1,3.9,2.3-.2,1.3,4.1s2.3-.5,2.3.4,1.1,4.9,1.7,5.2l2.5,1L29,165s.9-.7,2.2.8,3.4,5.3,4.4,6a6.1,6.1,0,0,1,2.7,6.4c-.6,3.9.6,5.7.6,5.7s3.9-7.2,4.7-8.2a68.4,68.4,0,0,1,5.1-4.9,21.5,21.5,0,0,0,3.7-1.1,21.4,21.4,0,0,0,2.9-3.6l1.9.4,1.8-1.4a2.9,2.9,0,0,0,2.1-.3c.9-.6,1.4-1.7,2.2-2s1.3.9,1.3.9l1.7-1.8a5.9,5.9,0,0,0,2.9,0c1.6-.4.9-2.2,1.1-3.1s1.9.2,1.9.2a18.1,18.1,0,0,0,1.7-1.6c.4-.7,2.1.4,2.1.4l1.3-3.2,2.9,1c.7.1,1.1-3.1,1.1-3.1l2.5.7,1.8-2,2.7.8,2.4-3.4h2.2l1.5-1.9h1.3l2.5-2.7c.3-.6,1.6.2,2.2-.2s0-1.7,1.3-2.1a1.2,1.2,0,0,1,1.7.8l2.6-4.8h1.5l.9-4.2s3.2.7,4.2-.2,1.6-5.8,1.6-5.8l1.3-.3v-2.3l2.1.3,1.3-3.7a4.4,4.4,0,0,0,2,.7c.8-.1.2-5.1.2-5.1s1.3,1.5,2.3.6,2.2-6.3,2.2-6.3,1.2.3,1.3-.3a48.9,48.9,0,0,0,.2-5.1h2l-1-3.8,1.4.4-.5-6.1s1.6,1.4,1.9.3S128.6,91.2,128.6,91.2Z"/></g></g></svg>