<svg xmlns="http://www.w3.org/2000/svg" xmlns:xlink="http://www.w3.org/1999/xlink" viewBox="0 0 203.4 220.1"><defs><style>.cls-1{fill:none;}.cls-2{fill:#f2be13;}.cls-3{fill:url(#_10_dpi_60_3);}</style><pattern id="_10_dpi_60_3" data-name="10 dpi 60% 3" width="28.8" height="28.8" patternTransform="translate(10)" patternUnits="userSpaceOnUse" viewBox="0 0 28.8 28.8"><rect class="cls-1" width="28.8" height="28.8"/><path class="cls-2" d="M28.8,33.1a4.3,4.3,0,1,0-4.3-4.3A4.3,4.3,0,0,0,28.8,33.1Z"/><path class="cls-2" d="M14.4,33.1a4.3,4.3,0,1,0-4.3-4.3A4.3,4.3,0,0,0,14.4,33.1Z"/><path class="cls-2" d="M28.8,18.7a4.3,4.3,0,1,0-4.3-4.3A4.3,4.3,0,0,0,28.8,18.7Z"/><path class="cls-2" d="M14.4,18.7a4.3,4.3,0,1,0-4.3-4.3A4.3,4.3,0,0,0,14.4,18.7Z"/><path class="cls-2" d="M7.2,25.9a4.3,4.3,0,1,0-4.3-4.3A4.3,4.3,0,0,0,7.2,25.9Z"/><path class="cls-2" d="M21.6,25.9a4.3,4.3,0,1,0-4.3-4.3A4.3,4.3,0,0,0,21.6,25.9Z"/><path class="cls-2" d="M7.2,11.5A4.3,4.3,0,1,0,2.9,7.2,4.3,4.3,0,0,0,7.2,11.5Z"/><path class="cls-2" d="M21.6,11.5a4.3,4.3,0,1,0-4.3-4.3A4.3,4.3,0,0,0,21.6,11.5Z"/><path class="cls-2" d="M0,33.1a4.3,4.3,0,0,0,0-8.6,4.3,4.3,0,0,0-4.3,4.3A4.3,4.3,0,0,0,0,33.1Z"/><path class="cls-2" d="M0,18.7a4.3,4.3,0,0,0,0-8.6,4.3,4.3,0,0,0-4.3,4.3A4.3,4.3,0,0,0,0,18.7Z"/><path class="cls-2" d="M28.8,4.3A4.3,4.3,0,0,0,33.1,0a4.3,4.3,0,0,0-4.3-4.3A4.3,4.3,0,0,0,24.5,0,4.3,4.3,0,0,0,28.8,4.3Z"/><path class="cls-2" d="M14.4,4.3A4.3,4.3,0,0,0,18.7,0a4.3,4.3,0,0,0-4.3-4.3A4.3,4.3,0,0,0,10.1,0,4.3,4.3,0,0,0,14.4,4.3Z"/><path class="cls-2" d="M0,4.3A4.3,4.3,0,0,0,4.3,0,4.3,4.3,0,0,0,0-4.3,4.3,4.3,0,0,0-4.3,0,4.3,4.3,0,0,0,0,4.3Z"/></pattern></defs><title>leaf6</title><g id="レイヤー_2" data-name="レイヤー 2"><g id="レイヤー_2-2" data-name="レイヤー 2"><path class="cls-3" d="M137.6,158c-11.3-13.6-50.2-30.8-78.2-28.1S13.9,136.8,9,137.6-1.8,131.2.5,125.5s4.6-8.7,3.1-13.8-2.4-8.4-.6-13,5.7-6.4,5-11.6S6.7,81.5,9.7,76.7s8.3-3.9,8.7-9.6.8-9.4,6.8-11.9,11.4-9.7,12.7-13.7,1.2-5.8,6-6.8,3.7-6.7,10.7-9.4,16.7-2,24.6,16.2S89.7,60.4,91.3,58.7s-7.1-16.5-9.7-22-6.9-15.3-2.5-19.8,12.2-6.7,17.2-5.4,6.5-1.8,11.6-5.4S117-.3,121.7,1.8,127.3-.6,133.8.1s11.6,1.6,15.5,2S161.1.2,164.8,4.9s10.6,6.8,13.4,6.7,7.8.3,11.2,3.7,18.8,6.3,12.5,17.9-55.5,68.9-60.2,95.8,10,39,21,53.3,28.4,30.3,29,34.5-2,4.1-3.7,1.1S146.8,169,137.6,158Z"/></g></g></svg>