<svg viewBox="0 0 249.8 273.3" xmlns="http://www.w3.org/2000/svg" xmlns:xlink="http://www.w3.org/1999/xlink"><pattern id="a" height="28.8" patternTransform="matrix(1.6166233 .10454234 -.10454234 1.6166233 17.1 -15.1)" patternUnits="userSpaceOnUse" viewBox="0 0 28.8 28.8" width="28.8"><path d="m0 0h28.8v28.8h-28.8z" fill="none"/><path d="m28.8 31a2.2 2.2 0 1 0 -2.2-2.2 2.2 2.2 0 0 0 2.2 2.2z" fill="#dbc451"/><path d="m14.4 31a2.2 2.2 0 1 0 -2.2-2.2 2.2 2.2 0 0 0 2.2 2.2z" fill="#dbc451"/><path d="m28.8 16.6a2.2 2.2 0 1 0 -2.2-2.2 2.2 2.2 0 0 0 2.2 2.2z" fill="#dbc451"/><path d="m14.4 16.6a2.2 2.2 0 1 0 -2.2-2.2 2.2 2.2 0 0 0 2.2 2.2z" fill="#dbc451"/><path d="m7.2 23.8a2.2 2.2 0 1 0 -2.2-2.2 2.2 2.2 0 0 0 2.2 2.2z" fill="#dbc451"/><path d="m21.6 23.8a2.2 2.2 0 1 0 -2.2-2.2 2.2 2.2 0 0 0 2.2 2.2z" fill="#dbc451"/><path d="m7.2 9.4a2.2 2.2 0 1 0 -2.2-2.2 2.2 2.2 0 0 0 2.2 2.2z" fill="#dbc451"/><path d="m21.6 9.4a2.2 2.2 0 1 0 -2.2-2.2 2.2 2.2 0 0 0 2.2 2.2z" fill="#dbc451"/><path d="m0 31a2.2 2.2 0 0 0 2.2-2.2 2.2 2.2 0 0 0 -2.2-2.2 2.2 2.2 0 1 0 0 4.4z" fill="#dbc451"/><path d="m0 16.6a2.2 2.2 0 0 0 2.2-2.2 2.2 2.2 0 0 0 -2.2-2.2 2.2 2.2 0 0 0 0 4.4z" fill="#dbc451"/><path d="m28.8 2.2a2.2 2.2 0 0 0 2.2-2.2 2.2 2.2 0 1 0 -4.4 0 2.2 2.2 0 0 0 2.2 2.2z" fill="#dbc451"/><path d="m14.4 2.2a2.2 2.2 0 0 0 2.2-2.2 2.2 2.2 0 0 0 -4.4 0 2.2 2.2 0 0 0 2.2 2.2z" fill="#dbc451"/><path d="m0 2.2a2.2 2.2 0 0 0 2.2-2.2 2.2 2.2 0 0 0 -2.2-2.2 2.2 2.2 0 0 0 -2.2 2.2 2.2 2.2 0 0 0 2.2 2.2z" fill="#dbc451"/></pattern><path d="m249.8 9.9-9-9.9s-20.7 19.7-25.7 28.3-14.7 18.8-16.1 20.2-14.7 3.4-24.8 3.2-45.5-5.2-54.5-5.3-7.2 1.8-7.2 1.8l-11-1.9-2.9 3.6s-8.4 1.4-9.7 2.1-1.1 2.5-1.1 2.5-8.7.2-10.2 1.5 1.8 2.5 1.8 2.5l-10.2 4.5 1.6 1.7-6.8 2 1.4 2.8s-7.2 3.9-8 4.7.4 2.2.4 2.2-7.9 6.6-8.7 8.8 2.6 2.8 2.6 2.8-8.4 3.5-8.1 4.7 2.5 2.4 2.5 2.4l-5 5.1 1.8 2.9-3.7 1.8.4 2.2s-7.6 5.3-8.3 7.5 2.7 6.3 2.7 6.3l-6.3 5.1.9 2.3-5.9 7.9a1.9 1.9 0 0 1 2.4 1.9c.3 2.4-2 2.4-2.4 3.7s1.9 2.5 1.3 3.5-2.7 6-2.7 6l.6 2-1.9 3.8 1.4 3.4-3.8 6.4 3.1 3.5-1.9 4.2 2.8 3.2s-5 3.4-4.2 4.3l3.5 3.5-4.2 4.7s2.9 1.5 2.1 2.8a17.3 17.3 0 0 0 -1.5 3.9s2.9 1.5 1.6 2.6-4.6 1.7-4.2 4.3a9.9 9.9 0 0 0 2 4.4l-1.7 4.1s2.1-.3 2.2 1.1-1.3 3.3-1.6 5.1a4.3 4.3 0 0 0 .9 3.2l-1 4 1.9 2.5s-3.4 5.6-3.7 7.4.8 6.5.8 6.5-3.3 9.6-4.5 11.7-10 14.1-10 14.1 3.7.3 9.5-3.9 10.2-2.5 12.1-1.6 9.5.7 12.7 1.3 2.8 2.7 2.8 2.7l7.9-1.5s2.3 2.1 3.2 2.7 8-1 9.5-1.8 2.4 3 2.4 3l7.4-1.6 1.3 3.5 6.9-1.6 1.4 2.4 8.1-2.2 1.9 3.9s7.2-2.3 8-3.1 2 1.3 2 1.3l3.4-3.5s1.4 3.3 2.2 2.5 6.8-4.5 5.9-4.2 2.8 3.6 2.8 3.6l6.1-4.4 2 2.3 7.1-5.4 1.6 2.2 9.7-7.7 3.3 4.2 4.1-6.2 1.5 1.7s5.6-3.6 6-4.4 3.2 2.3 3.2 2.3l4.3-6 3.1 1.3 6.7-5.4 2.2 1.6 7.3-5.1 1.8 1.5s6.1-6.5 6.5-9 3-.1 3-.1l5-8.1 1.9 3.4 6.1-6.5 2.2 1.2s5.3-5.3 5.7-6.2 2.6 1.3 2.6 1.3l2.1-9.7c.4-1.3 3 .4 3 .4s2.1-7.5 1.5-9 3.4-.5 3.4-.5-.7-11.2-.3-12 2.7-5.1 3-6.9.2-10.9.2-10.9 2.4-1.2 2.7-5.5-1.7-11.3-1.7-11.3a105 105 0 0 0 -.4-12c-.6-6.7-2.4-18.9-4.2-29.1s-8-25.6-9.6-32.4-7.2-26.4-5.1-28.8 20.8-27.9 24.8-31.5 10.9-8.9 13-8.7a4.1 4.1 0 0 0 3-.6z" fill="url(#a)"/></svg>