<svg xmlns="http://www.w3.org/2000/svg" xmlns:xlink="http://www.w3.org/1999/xlink" viewBox="0 0 341.4 221.6"><defs><style>.cls-1,.cls-2{fill:none;}.cls-2{stroke:#f58b00;stroke-width:1.44px;}.cls-3{fill:url(#_10_lpi_20_3);}</style><pattern id="_10_lpi_20_3" data-name="10 lpi 20% 3" width="72" height="72" patternTransform="translate(44.4 51.3) rotate(-45)" patternUnits="userSpaceOnUse" viewBox="0 0 72 72"><rect class="cls-1" width="72" height="72"/><line class="cls-2" x1="71.8" y1="68.4" x2="144.3" y2="68.4"/><line class="cls-2" x1="71.8" y1="54" x2="144.3" y2="54"/><line class="cls-2" x1="71.8" y1="39.6" x2="144.3" y2="39.6"/><line class="cls-2" x1="71.8" y1="25.2" x2="144.3" y2="25.2"/><line class="cls-2" x1="71.8" y1="10.8" x2="144.3" y2="10.8"/><line class="cls-2" x1="71.8" y1="61.2" x2="144.3" y2="61.2"/><line class="cls-2" x1="71.8" y1="46.8" x2="144.3" y2="46.8"/><line class="cls-2" x1="71.8" y1="32.4" x2="144.3" y2="32.4"/><line class="cls-2" x1="71.8" y1="18" x2="144.3" y2="18"/><line class="cls-2" x1="71.8" y1="3.6" x2="144.3" y2="3.6"/><line class="cls-2" x1="-0.3" y1="68.4" x2="72.3" y2="68.4"/><line class="cls-2" x1="-0.3" y1="54" x2="72.3" y2="54"/><line class="cls-2" x1="-0.3" y1="39.6" x2="72.3" y2="39.6"/><line class="cls-2" x1="-0.3" y1="25.2" x2="72.3" y2="25.2"/><line class="cls-2" x1="-0.3" y1="10.8" x2="72.3" y2="10.8"/><line class="cls-2" x1="-0.3" y1="61.2" x2="72.3" y2="61.2"/><line class="cls-2" x1="-0.3" y1="46.8" x2="72.3" y2="46.8"/><line class="cls-2" x1="-0.3" y1="32.4" x2="72.3" y2="32.4"/><line class="cls-2" x1="-0.3" y1="18" x2="72.3" y2="18"/><line class="cls-2" x1="-0.3" y1="3.6" x2="72.3" y2="3.6"/><line class="cls-2" x1="-72.3" y1="68.4" x2="0.3" y2="68.4"/><line class="cls-2" x1="-72.3" y1="54" x2="0.3" y2="54"/><line class="cls-2" x1="-72.3" y1="39.6" x2="0.3" y2="39.6"/><line class="cls-2" x1="-72.3" y1="25.2" x2="0.3" y2="25.2"/><line class="cls-2" x1="-72.3" y1="10.8" x2="0.3" y2="10.8"/><line class="cls-2" x1="-72.3" y1="61.2" x2="0.3" y2="61.2"/><line class="cls-2" x1="-72.3" y1="46.8" x2="0.3" y2="46.8"/><line class="cls-2" x1="-72.3" y1="32.4" x2="0.3" y2="32.4"/><line class="cls-2" x1="-72.3" y1="18" x2="0.3" y2="18"/><line class="cls-2" x1="-72.3" y1="3.6" x2="0.3" y2="3.6"/></pattern></defs><title>leaf1</title><g id="レイヤー_2" data-name="レイヤー 2"><g id="レイヤー_2-2" data-name="レイヤー 2"><path class="cls-3" d="M341.4,199.6l-4.8,13s-27.7-11-35.8-17.3-21.5-12.5-23.4-13.2-15.5,2.4-25.2,6.4-41.8,22.5-50.4,26.1-7.7,1-7.7,1l-9.8,6-4.2-2.4s-8.6,1.9-10.1,1.8-2.2-2-2.2-2-8.4,3.2-10.4,2.5.8-3.1.8-3.1l-11.5-.5.8-2.2-7.3.7.3-3.2s-8.5-1-9.6-1.5-.5-2.2-.5-2.2-10.2-3.3-11.7-5.2,1.3-3.7,1.3-3.7-9.5-.1-9.6-1.4,1.5-3.2,1.5-3.2l-6.9-2.9.7-3.6-4.3-.3-.5-2.3S91.6,184.8,90,183s.1-7.2.1-7.2l-8-2.5v-2.5l-8.8-5.3a2.1,2.1,0,0,0,1.6-2.8c-.7-2.3-2.9-1.5-3.8-2.6s.8-3.1-.2-3.9-4.9-4.7-4.9-4.7l-.2-2.2-3.3-2.9v-3.7l-6.2-4.8,1.6-4.4-3.5-3.4L56,126s-6.2-1.4-5.8-2.5l2.1-4.7-5.9-3s2.2-2.6.9-3.5a20.5,20.5,0,0,1-2.9-3.2s2.2-2.5.5-3.1-5.1.2-5.7-2.5a9.9,9.9,0,0,1,.2-5l-3.2-3.3s2-.5,1.6-1.9-2.5-2.6-3.5-4.2a4.3,4.3,0,0,1-.3-3.5l-2.6-3.5.8-3s-5.4-4.1-6.4-5.7S24,66.8,24,66.8s-6.9-7.9-8.9-9.5S0,47.6,0,47.6s3.5-1.7,10.7.1S21.4,46.2,23,44.6s8.8-4.3,11.7-6.2,1.7-3.6,1.7-3.6l8.2-1.6a36.8,36.8,0,0,1,2-3.9c.7-1,8.1-2.1,9.9-1.8s1.1-3.9,1.1-3.9l7.8-1.3-.2-3.9,7.3-1,.4-2.8,8.7-1.1L81.9,9s7.8-.5,8.9-.1,1.4-2,1.4-2L96.8,9s.1-3.7,1.3-3.3,8.2,1.7,7.2,1.8S106.7,3,106.7,3l7.5,1.9,1.1-3,8.9,2.4.7-2.7,12.3,3.7L138.8,0l6.3,4.4.8-2.2s6.9,1.2,7.6,1.9S155.7.7,155.7.7l6.4,4,2.5-2.4L173.1,5l1.5-2.4,9.1,2.1,1.1-2.2s8.4,3.9,9.8,6.1,3-1,3-1l7.9,5.9.6-4,8.4,3.9,1.6-1.9s7.2,3,7.9,3.7,2-2.2,2-2.2l5.8,8.4c.9,1.1,2.8-1.5,2.8-1.5s4.9,6.4,5,8.1,3.4-.8,3.4-.8,3.6,10.9,4.3,11.6,4.7,3.8,5.7,5.4,4.4,10.5,4.4,10.5,2.8.2,4.8,4.3,2.7,11.5,2.7,11.5a100.7,100.7,0,0,1,4.3,11.6c2.1,6.6,5.1,19.1,7.3,29.6s2.2,27.7,3.4,34.8,3.4,28.1,6.3,29.6,30.9,18.9,36.2,20.8,14,4.3,15.9,3.3S341.4,199.6,341.4,199.6Z"/></g></g></svg>