<svg viewBox="0 0 203.5 205.4" xmlns="http://www.w3.org/2000/svg" xmlns:xlink="http://www.w3.org/1999/xlink"><pattern id="a" height="28.8" patternTransform="matrix(.9854079 -.1702095 .1702095 .9854079 -12.5 14.5)" patternUnits="userSpaceOnUse" viewBox="0 0 28.8 28.8" width="28.8"><path d="m0 0h28.8v28.8h-28.8z" fill="none"/><path d="m28.8 33.1a4.3 4.3 0 1 0 -4.3-4.3 4.3 4.3 0 0 0 4.3 4.3z" fill="#fca87e"/><path d="m14.4 33.1a4.3 4.3 0 1 0 -4.3-4.3 4.3 4.3 0 0 0 4.3 4.3z" fill="#fca87e"/><path d="m28.8 18.7a4.3 4.3 0 1 0 -4.3-4.3 4.3 4.3 0 0 0 4.3 4.3z" fill="#fca87e"/><path d="m14.4 18.7a4.3 4.3 0 1 0 -4.3-4.3 4.3 4.3 0 0 0 4.3 4.3z" fill="#fca87e"/><path d="m7.2 25.9a4.3 4.3 0 1 0 -4.3-4.3 4.3 4.3 0 0 0 4.3 4.3z" fill="#fca87e"/><path d="m21.6 25.9a4.3 4.3 0 1 0 -4.3-4.3 4.3 4.3 0 0 0 4.3 4.3z" fill="#fca87e"/><path d="m7.2 11.5a4.3 4.3 0 1 0 -4.3-4.3 4.3 4.3 0 0 0 4.3 4.3z" fill="#fca87e"/><path d="m21.6 11.5a4.3 4.3 0 1 0 -4.3-4.3 4.3 4.3 0 0 0 4.3 4.3z" fill="#fca87e"/><path d="m0 33.1a4.3 4.3 0 0 0 0-8.6 4.3 4.3 0 0 0 -4.3 4.3 4.3 4.3 0 0 0 4.3 4.3z" fill="#fca87e"/><path d="m0 18.7a4.3 4.3 0 0 0 0-8.6 4.3 4.3 0 0 0 -4.3 4.3 4.3 4.3 0 0 0 4.3 4.3z" fill="#fca87e"/><path d="m28.8 4.3a4.3 4.3 0 0 0 4.3-4.3 4.3 4.3 0 0 0 -4.3-4.3 4.3 4.3 0 0 0 -4.3 4.3 4.3 4.3 0 0 0 4.3 4.3z" fill="#fca87e"/><path d="m14.4 4.3a4.3 4.3 0 0 0 4.3-4.3 4.3 4.3 0 0 0 -4.3-4.3 4.3 4.3 0 0 0 -4.3 4.3 4.3 4.3 0 0 0 4.3 4.3z" fill="#fca87e"/><path d="m0 4.3a4.3 4.3 0 0 0 4.3-4.3 4.3 4.3 0 0 0 -4.3-4.3 4.3 4.3 0 0 0 -4.3 4.3 4.3 4.3 0 0 0 4.3 4.3z" fill="#fca87e"/></pattern><path d="m110.6 95.5s-2.2-25-13.6-39.6-26.9-25.8-30.7-32.5-10.7-19.4-12.7-18.9 4.5 22.6 6.1 33-1.7 35.5 6.8 48.3a143.3 143.3 0 0 0 21.7 25.7s-23.1-18.1-33.8-19-29-1.3-36.6-3.5-17.4-3.8-17.8-2.1c0 0 18.5 12.9 23.1 18.1s30.8 31.7 44.2 32.9 20.6 2.5 18.7 3.3-21.5 2.7-32.1 9.5-26.7 19.9-30.8 20.8-2.7 2.5-1.2 2.7 19.1-3.2 24.7-2.1 30.9 6.1 54.4-11c0 0-1 2.2-4.6 5.1s-5.6 14.8-8.1 24.3-5.4 15.1-4 14.9 12.2-13 16.5-15.1 23.5-15.3 23.5-39.3c0 0 7.1 21.6 9.8 26.4s7.5 24.4 9 25.2 3.4-.6 3-1.5-8.6-22.5-9.9-24.9-10.8-29.7-10.8-29.7 19.9 8 30.3 6.4 29.3-11.7 33.1-12.5 9.8-3.2 11.8-3.6 1-2.2-1.4-1.7-13.8-.4-19.7-2.1-19.6-4.7-27.2-2.4c0 0 19.6-13 25.9-24s13.1-25.6 17-33.4 9.7-13.5 8-14.3-15.3 10.9-22.2 14.8-28.3 10.6-39.5 28.7c0 0 9.4-28.1 4.8-44.4s-10-41.5-10.7-48.9.5-8.8-1.4-9.1-3.5 13.6-6.3 21.4-14.8 33.2-16.9 45.5c-1.7 10.1-.6 26.1-.4 28.6z" fill="url(#a)"/></svg>