<svg xmlns="http://www.w3.org/2000/svg" xmlns:xlink="http://www.w3.org/1999/xlink" viewBox="0 0 244 136.1"><defs><style>.cls-1{fill:none;}.cls-2{fill:#dbc751;}.cls-3{fill:url(#_10_dpi_60_4);}</style><pattern id="_10_dpi_60_4" data-name="10 dpi 60% 4" width="28.8" height="28.8" patternTransform="translate(-10 -10)" patternUnits="userSpaceOnUse" viewBox="0 0 28.8 28.8"><rect class="cls-1" width="28.8" height="28.8"/><path class="cls-2" d="M28.8,33.1a4.3,4.3,0,1,0-4.3-4.3A4.3,4.3,0,0,0,28.8,33.1Z"/><path class="cls-2" d="M14.4,33.1a4.3,4.3,0,1,0-4.3-4.3A4.3,4.3,0,0,0,14.4,33.1Z"/><path class="cls-2" d="M28.8,18.7a4.3,4.3,0,1,0-4.3-4.3A4.3,4.3,0,0,0,28.8,18.7Z"/><path class="cls-2" d="M14.4,18.7a4.3,4.3,0,1,0-4.3-4.3A4.3,4.3,0,0,0,14.4,18.7Z"/><path class="cls-2" d="M7.2,25.9a4.3,4.3,0,1,0-4.3-4.3A4.3,4.3,0,0,0,7.2,25.9Z"/><path class="cls-2" d="M21.6,25.9a4.3,4.3,0,1,0-4.3-4.3A4.3,4.3,0,0,0,21.6,25.9Z"/><path class="cls-2" d="M7.2,11.5A4.3,4.3,0,1,0,2.9,7.2,4.3,4.3,0,0,0,7.2,11.5Z"/><path class="cls-2" d="M21.6,11.5a4.3,4.3,0,1,0-4.3-4.3A4.3,4.3,0,0,0,21.6,11.5Z"/><path class="cls-2" d="M0,33.1a4.3,4.3,0,0,0,0-8.6,4.3,4.3,0,0,0-4.3,4.3A4.3,4.3,0,0,0,0,33.1Z"/><path class="cls-2" d="M0,18.7a4.3,4.3,0,0,0,0-8.6,4.3,4.3,0,0,0-4.3,4.3A4.3,4.3,0,0,0,0,18.7Z"/><path class="cls-2" d="M28.8,4.3A4.3,4.3,0,0,0,33.1,0a4.3,4.3,0,0,0-4.3-4.3A4.3,4.3,0,0,0,24.5,0,4.3,4.3,0,0,0,28.8,4.3Z"/><path class="cls-2" d="M14.4,4.3A4.3,4.3,0,0,0,18.7,0a4.3,4.3,0,0,0-4.3-4.3A4.3,4.3,0,0,0,10.1,0,4.3,4.3,0,0,0,14.4,4.3Z"/><path class="cls-2" d="M0,4.3A4.3,4.3,0,0,0,4.3,0,4.3,4.3,0,0,0,0-4.3,4.3,4.3,0,0,0-4.3,0,4.3,4.3,0,0,0,0,4.3Z"/></pattern></defs><title>leaf5</title><g id="レイヤー_2" data-name="レイヤー 2"><g id="レイヤー_2-2" data-name="レイヤー 2"><path class="cls-3" d="M240.2,19.3l3.8,7.3s-18.9,9.2-25.9,10.7-16.4,5.6-17.7,6.2-6.6,8.4-9.5,14.7-10,29-12.5,34.6-3.3,4.1-3.3,4.1l-2,7.1-3.2,1.1s-3.4,4.9-4.2,5.6a2.2,2.2,0,0,1-2,.3s-2.7,5.3-4,6-1-1.6-1-1.6l-5.9,5.4-.7-1.2-3.2,3.8-1.5-1.4s-4.6,3.7-5.4,4.1-1.3-.7-1.3-.7-6.6,3.7-8.2,3.7-1.1-2.1-1.1-2.1-4.7,4.6-5.4,4.2-.8-2-.8-2l-4.7,2.2-1.4-1.7-2.3,1.9-1.2-.6s-5.7,3.7-7.3,3.7-3.3-2.8-3.3-2.8l-5.1,2.9-1.2-1-6.9,2.3a1.2,1.2,0,0,0-.5-1.9c-1.5-.6-2.2.8-3.1.8s-1.1-1.6-1.9-1.4-4.7.5-4.7.5l-1.1-.7-3,.5-1.7-1.5-5.4,1.1L69.1,131l-3.3.4-1.2-2.3s-3.7,2.4-4,1.8-1.2-2.8-1.2-2.8l-4.3,1.7s-.1-2.1-1.2-1.8a20.1,20.1,0,0,1-2.9.2s-.2-2.1-1.3-1.5-2.4,2.6-4,1.8a5.1,5.1,0,0,1-2.2-2l-3.2.3s.8-1.2-.1-1.6-2.4.2-3.7.1a2.5,2.5,0,0,1-1.8-1.2H31.8l-1-1.6s-4.7,1.1-5.9.9-3.9-1.7-3.9-1.7-7.2.3-8.9.6S0,125.8,0,125.8s.9-2.3,5.4-5.2,4.5-5.8,4.5-7.1,2.4-6,2.9-8.1-.9-2.2-.9-2.2l3.3-4.6a18.7,18.7,0,0,1-.8-2.5c-.1-.7,3-4.7,4-5.5s-1.3-2-1.3-2l3.2-4.3-1.9-1.4,3.2-4-1.2-1.3L24.2,73l-1.9-1.9a56.6,56.6,0,0,1,4.3-4.4c.8-.4-.3-1.4-.3-1.4l3.3-1.5s-1.7-1.5-1-1.8,4.9-3.4,4.5-2.9-1.5-2.4-1.5-2.4l4.6-2.9-.8-1.7,5.5-3.4L40,47.4l7.8-4.6L46.1,40l5.2-1.4-.7-1.2s4-2.9,4.6-2.9-.5-2.4-.5-2.4l5.1-1.6V28.4l5.5-3.1L65,23.6,70.4,20,70,18.7s5.9-2.6,7.7-2.4.9-1.8.9-1.8l6.7-1.6L83.7,11l6-2.5V6.9s5-2.2,5.6-2.3,0-1.9,0-1.9l6.9.5c.9,0,.6-1.9.6-1.9s5.5.1,6.3.7,1.3-2,1.3-2,7,2.5,7.6,2.4,4.1-.7,5.4-.6,7.1,1.9,7.1,1.9,1.4-1.3,4.3-.6a24.4,24.4,0,0,1,6.8,3.1,64.6,64.6,0,0,1,7.7,2.4c4.1,1.6,11.5,5,17.5,8s14.2,9.7,18.1,11.9,14.9,9.2,17.1,8.4,24.1-7.6,27.6-9.5,9-5.1,9.5-6.4A3.3,3.3,0,0,1,240.2,19.3Z"/></g></g></svg>