<svg viewBox="0 0 203.4 220.1" xmlns="http://www.w3.org/2000/svg" xmlns:xlink="http://www.w3.org/1999/xlink"><pattern id="a" height="28.8" patternTransform="translate(10)" patternUnits="userSpaceOnUse" viewBox="0 0 28.8 28.8" width="28.8"><path d="m0 0h28.8v28.8h-28.8z" fill="none"/><path d="m28.8 33.1a4.3 4.3 0 1 0 -4.3-4.3 4.3 4.3 0 0 0 4.3 4.3z" fill="#f2be13"/><path d="m14.4 33.1a4.3 4.3 0 1 0 -4.3-4.3 4.3 4.3 0 0 0 4.3 4.3z" fill="#f2be13"/><path d="m28.8 18.7a4.3 4.3 0 1 0 -4.3-4.3 4.3 4.3 0 0 0 4.3 4.3z" fill="#f2be13"/><path d="m14.4 18.7a4.3 4.3 0 1 0 -4.3-4.3 4.3 4.3 0 0 0 4.3 4.3z" fill="#f2be13"/><path d="m7.2 25.9a4.3 4.3 0 1 0 -4.3-4.3 4.3 4.3 0 0 0 4.3 4.3z" fill="#f2be13"/><path d="m21.6 25.9a4.3 4.3 0 1 0 -4.3-4.3 4.3 4.3 0 0 0 4.3 4.3z" fill="#f2be13"/><path d="m7.2 11.5a4.3 4.3 0 1 0 -4.3-4.3 4.3 4.3 0 0 0 4.3 4.3z" fill="#f2be13"/><path d="m21.6 11.5a4.3 4.3 0 1 0 -4.3-4.3 4.3 4.3 0 0 0 4.3 4.3z" fill="#f2be13"/><path d="m0 33.1a4.3 4.3 0 0 0 0-8.6 4.3 4.3 0 0 0 -4.3 4.3 4.3 4.3 0 0 0 4.3 4.3z" fill="#f2be13"/><path d="m0 18.7a4.3 4.3 0 0 0 0-8.6 4.3 4.3 0 0 0 -4.3 4.3 4.3 4.3 0 0 0 4.3 4.3z" fill="#f2be13"/><path d="m28.8 4.3a4.3 4.3 0 0 0 4.3-4.3 4.3 4.3 0 0 0 -4.3-4.3 4.3 4.3 0 0 0 -4.3 4.3 4.3 4.3 0 0 0 4.3 4.3z" fill="#f2be13"/><path d="m14.4 4.3a4.3 4.3 0 0 0 4.3-4.3 4.3 4.3 0 0 0 -4.3-4.3 4.3 4.3 0 0 0 -4.3 4.3 4.3 4.3 0 0 0 4.3 4.3z" fill="#f2be13"/><path d="m0 4.3a4.3 4.3 0 0 0 4.3-4.3 4.3 4.3 0 0 0 -4.3-4.3 4.3 4.3 0 0 0 -4.3 4.3 4.3 4.3 0 0 0 4.3 4.3z" fill="#f2be13"/></pattern><path d="m137.6 158c-11.3-13.6-50.2-30.8-78.2-28.1s-45.5 6.9-50.4 7.7-10.8-6.4-8.5-12.1 4.6-8.7 3.1-13.8-2.4-8.4-.6-13 5.7-6.4 5-11.6-1.3-5.6 1.7-10.4 8.3-3.9 8.7-9.6.8-9.4 6.8-11.9 11.4-9.7 12.7-13.7 1.2-5.8 6-6.8 3.7-6.7 10.7-9.4 16.7-2 24.6 16.2 10.5 18.9 12.1 17.2-7.1-16.5-9.7-22-6.9-15.3-2.5-19.8 12.2-6.7 17.2-5.4 6.5-1.8 11.6-5.4 9.1-6.4 13.8-4.3 5.6-2.4 12.1-1.7 11.6 1.6 15.5 2 11.8-1.9 15.5 2.8 10.6 6.8 13.4 6.7 7.8.3 11.2 3.7 18.8 6.3 12.5 17.9-55.5 68.9-60.2 95.8 10 39 21 53.3 28.4 30.3 29 34.5-2 4.1-3.7 1.1-41.2-48.9-50.4-59.9z" fill="url(#a)"/></svg>