<svg xmlns="http://www.w3.org/2000/svg" xmlns:xlink="http://www.w3.org/1999/xlink" viewBox="0 0 206 134.2"><defs><style>.cls-1,.cls-2{fill:none;}.cls-2{stroke:#b9c25b;stroke-width:4.32px;}.cls-3{fill:url(#新規パターン_12);}</style><pattern id="新規パターン_12" data-name="新規パターン 12" width="72" height="72" patternTransform="translate(1.3 29.2) rotate(-45)" patternUnits="userSpaceOnUse" viewBox="0 0 72 72"><rect class="cls-1" width="72" height="72"/><line class="cls-2" x1="71.8" y1="68.4" x2="144.3" y2="68.4"/><line class="cls-2" x1="71.8" y1="54" x2="144.3" y2="54"/><line class="cls-2" x1="71.8" y1="39.6" x2="144.3" y2="39.6"/><line class="cls-2" x1="71.8" y1="25.2" x2="144.3" y2="25.2"/><line class="cls-2" x1="71.8" y1="10.8" x2="144.3" y2="10.8"/><line class="cls-2" x1="71.8" y1="61.2" x2="144.3" y2="61.2"/><line class="cls-2" x1="71.8" y1="46.8" x2="144.3" y2="46.8"/><line class="cls-2" x1="71.8" y1="32.4" x2="144.3" y2="32.4"/><line class="cls-2" x1="71.8" y1="18" x2="144.3" y2="18"/><line class="cls-2" x1="71.8" y1="3.6" x2="144.3" y2="3.6"/><line class="cls-2" x1="-0.3" y1="68.4" x2="72.3" y2="68.4"/><line class="cls-2" x1="-0.3" y1="54" x2="72.3" y2="54"/><line class="cls-2" x1="-0.3" y1="39.6" x2="72.3" y2="39.6"/><line class="cls-2" x1="-0.3" y1="25.2" x2="72.3" y2="25.2"/><line class="cls-2" x1="-0.3" y1="10.8" x2="72.3" y2="10.8"/><line class="cls-2" x1="-0.3" y1="61.2" x2="72.3" y2="61.2"/><line class="cls-2" x1="-0.3" y1="46.8" x2="72.3" y2="46.8"/><line class="cls-2" x1="-0.3" y1="32.4" x2="72.3" y2="32.4"/><line class="cls-2" x1="-0.3" y1="18" x2="72.3" y2="18"/><line class="cls-2" x1="-0.3" y1="3.6" x2="72.3" y2="3.6"/><line class="cls-2" x1="-72.3" y1="68.4" x2="0.3" y2="68.4"/><line class="cls-2" x1="-72.3" y1="54" x2="0.3" y2="54"/><line class="cls-2" x1="-72.3" y1="39.6" x2="0.3" y2="39.6"/><line class="cls-2" x1="-72.3" y1="25.2" x2="0.3" y2="25.2"/><line class="cls-2" x1="-72.3" y1="10.8" x2="0.3" y2="10.8"/><line class="cls-2" x1="-72.3" y1="61.2" x2="0.3" y2="61.2"/><line class="cls-2" x1="-72.3" y1="46.8" x2="0.3" y2="46.8"/><line class="cls-2" x1="-72.3" y1="32.4" x2="0.3" y2="32.4"/><line class="cls-2" x1="-72.3" y1="18" x2="0.3" y2="18"/><line class="cls-2" x1="-72.3" y1="3.6" x2="0.3" y2="3.6"/></pattern></defs><title>leaf7</title><g id="レイヤー_2" data-name="レイヤー 2"><g id="レイヤー_2-2" data-name="レイヤー 2"><path class="cls-3" d="M204.1,126.1c-1.2.5-6.4-1.2-9.7-2.5s-19.9-12.6-21.7-13.5-2.7-13.7-3.3-18-.3-14.6-1.4-21-2.8-13.9-3.9-17.9a65,65,0,0,0-2.4-7.1,28.7,28.7,0,0,0-1.5-7c-1.1-2.5-2.8-2.7-2.8-2.7s-2-5.4-2.5-6.4a27.1,27.1,0,0,0-3.4-3.4c-.4-.5-2.4-7.1-2.4-7.1s-2.2,1.4-2.1.4-2.9-5.1-2.9-5.1-1.3,1.6-1.7.9L139,10.4s-.9,1.7-1.3,1.3-4.8-2.5-4.8-2.5l-1,1.1-5.1-2.6-.4,2.4-4.8-3.8s-.9,1.9-1.8.6-5.9-4-5.9-4l-.7,1.3-5.5-1.6L106.8,4l-5.2-1.8L100,3.6,96.2.9s-1,2.4-1.5,2-4.5-1.4-4.5-1.4l-.6,1.3L85.8,0l-1,3.1L78.6,1a8.1,8.1,0,0,1,.1,1.6c0,2.1,1.4,4.7.8,6.6s-4.7,2.2-5.9,3.9-.2,5.6-1.9,6.8-4.8-.2-6.8.4-3.6,1.6-5.7,1.6-4.7,1.4-6.6.8-2.3-4.4-4-5.6-3.6-1.7-4.8-3.3-1.2-3.3-1.7-5.1H40.4v2.3l-4.8.6s.4,2.4-.8,2.2-5.6.3-6,.9A14.2,14.2,0,0,0,27.5,17l-5,.7s.7,1.1-1.1,2.1-6.3,2.5-7.3,3.4S11,26,6.6,24.7,0,24.3,0,24.3s7.9,5.3,9.1,6.3,5.2,6,5.2,6a15.6,15.6,0,0,0,1,3.9,28.5,28.5,0,0,0,3.8,3.6L18.6,46l1.5,2.1a2.4,2.4,0,0,0,.1,2.1c.6,1,1.8,1.8,2.1,2.6s-1.1,1.1-1.1,1.1L23.1,56a6.1,6.1,0,0,0-.2,3c.3,1.6,2.5,1.2,3.5,1.7s-.4,1.8-.4,1.8a10.4,10.4,0,0,0,1.7,2c.8.6-.6,2.1-.6,2.1l3.5,1.9-1.3,2.8C29,72,32.8,73,32.8,73l-1,2.4,2.1,2.1-1.1,2.6,3.7,3.1-.2,2.2,2.1,1.9v1.3l2.9,3c.6.5-.4,1.6.1,2.3s1.8.2,2.2,1.7a1.2,1.2,0,0,1-1,1.6l5.3,3.5v1.5l4.8,1.7s-1.1,3.1-.2,4.3,6.6,2.7,6.6,2.7l.2,1.4,2.7.3-.5,2.1,4.1,1.9s-1,1.1-.9,1.9,5.8,1.2,5.8,1.2-1.8,1-.9,2.2,7.1,3.4,7.1,3.4-.4,1.1.3,1.4,5.8,1.1,5.8,1.1l-.2,2,4.4-.2-.5,1.3,7.1.6s-1.8,1.3-.6,1.8,6.5-1.2,6.5-1.2.3,1.2,1.2,1.3,6.3-.7,6.3-.7l2.5,1.5,6.1-3.3s-.6,1.5,4.7-.4,25.4-12,31.4-14.1,14.3-3.5,15.5-3,9.2,4.5,14,8.6,21.7,11.5,21.7,11.5l3.1-7.7A3.1,3.1,0,0,0,204.1,126.1Z"/></g></g></svg>