<svg xmlns="http://www.w3.org/2000/svg" xmlns:xlink="http://www.w3.org/1999/xlink" viewBox="0 0 249.8 273.3"><defs><style>.cls-1{fill:none;}.cls-2{fill:#dbc451;}.cls-3{fill:url(#_10_dpi_30_2);}</style><pattern id="_10_dpi_30_2" data-name="10 dpi 30% 2" width="28.8" height="28.8" patternTransform="translate(17.1 -15.1) rotate(3.7) scale(1.62)" patternUnits="userSpaceOnUse" viewBox="0 0 28.8 28.8"><rect class="cls-1" width="28.8" height="28.8"/><path class="cls-2" d="M28.8,31a2.2,2.2,0,1,0-2.2-2.2A2.2,2.2,0,0,0,28.8,31Z"/><path class="cls-2" d="M14.4,31a2.2,2.2,0,1,0-2.2-2.2A2.2,2.2,0,0,0,14.4,31Z"/><path class="cls-2" d="M28.8,16.6a2.2,2.2,0,1,0-2.2-2.2A2.2,2.2,0,0,0,28.8,16.6Z"/><path class="cls-2" d="M14.4,16.6a2.2,2.2,0,1,0-2.2-2.2A2.2,2.2,0,0,0,14.4,16.6Z"/><path class="cls-2" d="M7.2,23.8A2.2,2.2,0,1,0,5,21.6,2.2,2.2,0,0,0,7.2,23.8Z"/><path class="cls-2" d="M21.6,23.8a2.2,2.2,0,1,0-2.2-2.2A2.2,2.2,0,0,0,21.6,23.8Z"/><path class="cls-2" d="M7.2,9.4A2.2,2.2,0,1,0,5,7.2,2.2,2.2,0,0,0,7.2,9.4Z"/><path class="cls-2" d="M21.6,9.4a2.2,2.2,0,1,0-2.2-2.2A2.2,2.2,0,0,0,21.6,9.4Z"/><path class="cls-2" d="M0,31a2.2,2.2,0,0,0,2.2-2.2A2.2,2.2,0,0,0,0,26.6,2.2,2.2,0,1,0,0,31Z"/><path class="cls-2" d="M0,16.6a2.2,2.2,0,0,0,2.2-2.2A2.2,2.2,0,0,0,0,12.2a2.2,2.2,0,0,0,0,4.4Z"/><path class="cls-2" d="M28.8,2.2A2.2,2.2,0,0,0,31,0a2.2,2.2,0,1,0-4.4,0A2.2,2.2,0,0,0,28.8,2.2Z"/><path class="cls-2" d="M14.4,2.2A2.2,2.2,0,0,0,16.6,0a2.2,2.2,0,0,0-4.4,0A2.2,2.2,0,0,0,14.4,2.2Z"/><path class="cls-2" d="M0,2.2A2.2,2.2,0,0,0,2.2,0,2.2,2.2,0,0,0,0-2.2,2.2,2.2,0,0,0-2.2,0,2.2,2.2,0,0,0,0,2.2Z"/></pattern></defs><title>leaf8</title><g id="レイヤー_2" data-name="レイヤー 2"><g id="レイヤー_2-2" data-name="レイヤー 2"><path class="cls-3" d="M249.8,9.9l-9-9.9s-20.7,19.7-25.7,28.3S200.4,47.1,199,48.5s-14.7,3.4-24.8,3.2-45.5-5.2-54.5-5.3-7.2,1.8-7.2,1.8l-11-1.9-2.9,3.6s-8.4,1.4-9.7,2.1-1.1,2.5-1.1,2.5-8.7.2-10.2,1.5,1.8,2.5,1.8,2.5L69.2,63l1.6,1.7-6.8,2,1.4,2.8s-7.2,3.9-8,4.7.4,2.2.4,2.2-7.9,6.6-8.7,8.8S51.7,88,51.7,88s-8.4,3.5-8.1,4.7,2.5,2.4,2.5,2.4l-5,5.1,1.8,2.9-3.7,1.8.4,2.2s-7.6,5.3-8.3,7.5,2.7,6.3,2.7,6.3L27.7,126l.9,2.3-5.9,7.9a1.9,1.9,0,0,1,2.4,1.9c.3,2.4-2,2.4-2.4,3.7s1.9,2.5,1.3,3.5-2.7,6-2.7,6l.6,2L20,157.1l1.4,3.4-3.8,6.4,3.1,3.5-1.9,4.2,2.8,3.2s-5,3.4-4.2,4.3l3.5,3.5-4.2,4.7s2.9,1.5,2.1,2.8a17.3,17.3,0,0,0-1.5,3.9s2.9,1.5,1.6,2.6-4.6,1.7-4.2,4.3a9.9,9.9,0,0,0,2,4.4L15,212.4s2.1-.3,2.2,1.1-1.3,3.3-1.6,5.1a4.3,4.3,0,0,0,.9,3.2l-1,4,1.9,2.5s-3.4,5.6-3.7,7.4.8,6.5.8,6.5-3.3,9.6-4.5,11.7S0,268,0,268s3.7.3,9.5-3.9,10.2-2.5,12.1-1.6,9.5.7,12.7,1.3,2.8,2.7,2.8,2.7L45,265s2.3,2.1,3.2,2.7,8-1,9.5-1.8,2.4,3,2.4,3l7.4-1.6,1.3,3.5,6.9-1.6,1.4,2.4,8.1-2.2,1.9,3.9s7.2-2.3,8-3.1,2,1.3,2,1.3l3.4-3.5s1.4,3.3,2.2,2.5,6.8-4.5,5.9-4.2,2.8,3.6,2.8,3.6l6.1-4.4,2,2.3,7.1-5.4,1.6,2.2,9.7-7.7,3.3,4.2,4.1-6.2,1.5,1.7s5.6-3.6,6-4.4,3.2,2.3,3.2,2.3l4.3-6,3.1,1.3,6.7-5.4,2.2,1.6,7.3-5.1,1.8,1.5s6.1-6.5,6.5-9,3-.1,3-.1l5-8.1,1.9,3.4,6.1-6.5,2.2,1.2s5.3-5.3,5.7-6.2,2.6,1.3,2.6,1.3l2.1-9.7c.4-1.3,3,.4,3,.4s2.1-7.5,1.5-9,3.4-.5,3.4-.5-.7-11.2-.3-12,2.7-5.1,3-6.9.2-10.9.2-10.9,2.4-1.2,2.7-5.5-1.7-11.3-1.7-11.3a105,105,0,0,0-.4-12c-.6-6.7-2.4-18.9-4.2-29.1s-8-25.6-9.6-32.4-7.2-26.4-5.1-28.8,20.8-27.9,24.8-31.5,10.9-8.9,13-8.7A4.1,4.1,0,0,0,249.8,9.9Z"/></g></g></svg>