<svg xmlns="http://www.w3.org/2000/svg" xmlns:xlink="http://www.w3.org/1999/xlink" viewBox="0 0 203.5 205.4"><defs><style>.cls-1{fill:none;}.cls-2{fill:#fca87e;}.cls-3{fill:url(#_10_dpi_60_9);}</style><pattern id="_10_dpi_60_9" data-name="10 dpi 60% 9" width="28.8" height="28.8" patternTransform="translate(-12.5 14.5) rotate(-9.8)" patternUnits="userSpaceOnUse" viewBox="0 0 28.8 28.8"><rect class="cls-1" width="28.8" height="28.8"/><path class="cls-2" d="M28.8,33.1a4.3,4.3,0,1,0-4.3-4.3A4.3,4.3,0,0,0,28.8,33.1Z"/><path class="cls-2" d="M14.4,33.1a4.3,4.3,0,1,0-4.3-4.3A4.3,4.3,0,0,0,14.4,33.1Z"/><path class="cls-2" d="M28.8,18.7a4.3,4.3,0,1,0-4.3-4.3A4.3,4.3,0,0,0,28.8,18.7Z"/><path class="cls-2" d="M14.4,18.7a4.3,4.3,0,1,0-4.3-4.3A4.3,4.3,0,0,0,14.4,18.7Z"/><path class="cls-2" d="M7.2,25.9a4.3,4.3,0,1,0-4.3-4.3A4.3,4.3,0,0,0,7.2,25.9Z"/><path class="cls-2" d="M21.6,25.9a4.3,4.3,0,1,0-4.3-4.3A4.3,4.3,0,0,0,21.6,25.9Z"/><path class="cls-2" d="M7.2,11.5A4.3,4.3,0,1,0,2.9,7.2,4.3,4.3,0,0,0,7.2,11.5Z"/><path class="cls-2" d="M21.6,11.5a4.3,4.3,0,1,0-4.3-4.3A4.3,4.3,0,0,0,21.6,11.5Z"/><path class="cls-2" d="M0,33.1a4.3,4.3,0,0,0,0-8.6,4.3,4.3,0,0,0-4.3,4.3A4.3,4.3,0,0,0,0,33.1Z"/><path class="cls-2" d="M0,18.7a4.3,4.3,0,0,0,0-8.6,4.3,4.3,0,0,0-4.3,4.3A4.3,4.3,0,0,0,0,18.7Z"/><path class="cls-2" d="M28.8,4.3A4.3,4.3,0,0,0,33.1,0a4.3,4.3,0,0,0-4.3-4.3A4.3,4.3,0,0,0,24.5,0,4.3,4.3,0,0,0,28.8,4.3Z"/><path class="cls-2" d="M14.4,4.3A4.3,4.3,0,0,0,18.7,0a4.3,4.3,0,0,0-4.3-4.3A4.3,4.3,0,0,0,10.1,0,4.3,4.3,0,0,0,14.4,4.3Z"/><path class="cls-2" d="M0,4.3A4.3,4.3,0,0,0,4.3,0,4.3,4.3,0,0,0,0-4.3,4.3,4.3,0,0,0-4.3,0,4.3,4.3,0,0,0,0,4.3Z"/></pattern></defs><title>leaf4</title><g id="レイヤー_2" data-name="レイヤー 2"><g id="レイヤー_2-2" data-name="レイヤー 2"><path class="cls-3" d="M110.6,95.5s-2.2-25-13.6-39.6S70.1,30.1,66.3,23.4,55.6,4,53.6,4.5s4.5,22.6,6.1,33S58,73,66.5,85.8a143.3,143.3,0,0,0,21.7,25.7s-23.1-18.1-33.8-19-29-1.3-36.6-3.5S.4,85.2,0,86.9c0,0,18.5,12.9,23.1,18.1s30.8,31.7,44.2,32.9,20.6,2.5,18.7,3.3-21.5,2.7-32.1,9.5-26.7,19.9-30.8,20.8-2.7,2.5-1.2,2.7S41,171,46.6,172.1s30.9,6.1,54.4-11c0,0-1,2.2-4.6,5.1s-5.6,14.8-8.1,24.3-5.4,15.1-4,14.9,12.2-13,16.5-15.1S124.3,175,124.3,151c0,0,7.1,21.6,9.8,26.4s7.5,24.4,9,25.2,3.4-.6,3-1.5-8.6-22.5-9.9-24.9-10.8-29.7-10.8-29.7,19.9,8,30.3,6.4,29.3-11.7,33.1-12.5,9.8-3.2,11.8-3.6,1-2.2-1.4-1.7-13.8-.4-19.7-2.1-19.6-4.7-27.2-2.4c0,0,19.6-13,25.9-24s13.1-25.6,17-33.4,9.7-13.5,8-14.3S187.9,69.8,181,73.7s-28.3,10.6-39.5,28.7c0,0,9.4-28.1,4.8-44.4s-10-41.5-10.7-48.9.5-8.8-1.4-9.1-3.5,13.6-6.3,21.4S113.1,54.6,111,66.9C109.3,77,110.4,93,110.6,95.5Z"/></g></g></svg>