<svg viewBox="0 0 340.3 355.3" xmlns="http://www.w3.org/2000/svg" xmlns:xlink="http://www.w3.org/1999/xlink"><pattern id="a" height="28.8" patternTransform="matrix(.74213445 -.83883041 .83883041 .74213445 15 95.6)" patternUnits="userSpaceOnUse" viewBox="0 0 28.8 28.8" width="28.8"><path d="m0 0h28.8v28.8h-28.8z" fill="none"/><path d="m28.8 30.2a1.4 1.4 0 1 0 -1.4-1.4 1.4 1.4 0 0 0 1.4 1.4z" fill="#eda007"/><path d="m14.4 30.2a1.4 1.4 0 1 0 -1.4-1.4 1.4 1.4 0 0 0 1.4 1.4z" fill="#eda007"/><path d="m28.8 15.8a1.4 1.4 0 1 0 -1.4-1.4 1.4 1.4 0 0 0 1.4 1.4z" fill="#eda007"/><path d="m14.4 15.8a1.4 1.4 0 1 0 -1.4-1.4 1.4 1.4 0 0 0 1.4 1.4z" fill="#eda007"/><path d="m7.2 23a1.4 1.4 0 1 0 -1.4-1.4 1.4 1.4 0 0 0 1.4 1.4z" fill="#eda007"/><path d="m21.6 23a1.4 1.4 0 1 0 -1.4-1.4 1.4 1.4 0 0 0 1.4 1.4z" fill="#eda007"/><path d="m7.2 8.6a1.4 1.4 0 1 0 -1.4-1.4 1.4 1.4 0 0 0 1.4 1.4z" fill="#eda007"/><path d="m21.6 8.6a1.4 1.4 0 1 0 -1.4-1.4 1.4 1.4 0 0 0 1.4 1.4z" fill="#eda007"/><path d="m0 30.2a1.4 1.4 0 0 0 0-2.8 1.4 1.4 0 0 0 -1.4 1.4 1.4 1.4 0 0 0 1.4 1.4z" fill="#eda007"/><path d="m0 15.8a1.4 1.4 0 0 0 0-2.8 1.4 1.4 0 0 0 -1.4 1.4 1.4 1.4 0 0 0 1.4 1.4z" fill="#eda007"/><path d="m28.8 1.4a1.4 1.4 0 0 0 1.4-1.4 1.4 1.4 0 0 0 -1.4-1.4 1.4 1.4 0 0 0 -1.4 1.4 1.4 1.4 0 0 0 1.4 1.4z" fill="#eda007"/><path d="m14.4 1.4a1.4 1.4 0 0 0 1.4-1.4 1.4 1.4 0 0 0 -1.4-1.4 1.4 1.4 0 0 0 -1.4 1.4 1.4 1.4 0 0 0 1.4 1.4z" fill="#eda007"/><path d="m0 1.4a1.4 1.4 0 0 0 1.4-1.4 1.4 1.4 0 0 0 -1.4-1.4 1.4 1.4 0 0 0 -1.4 1.4 1.4 1.4 0 0 0 1.4 1.4z" fill="#eda007"/></pattern><path d="m174.5 153.9s-29.9-31.1-60.9-38.6-63.9-5.7-76.1-10.5-35.1-14.5-37.4-11.7 30.4 25.3 43.8 37.6 35.7 49.5 60.9 57.6a243.9 243.9 0 0 0 56.7 11.1s-50.5.6-65.8 10.9-40.3 29.3-52.7 34.5-27.4 13.6-26.2 16.3c0 0 38.6-2.5 50.4-.5s75.3 9.4 94.7-3.3 30.4-18.8 28.6-15.7-25.9 26.7-32.8 47.2-14.5 55.5-19 61.1-.9 6.3 1.3 4.8 22.2-24.8 30.8-29.3 48.1-25 61.1-73.2c0 0 1.2 4-.6 11.9s8.5 25.8 15.3 41.2 9 26.1 10.7 24.3 2.3-30.5 5.9-38 15-45.7-10.8-77.9c0 0 32.7 21.2 41.5 24.8s36.3 24.6 39.2 24.2 3.9-4.5 2.4-5.4-35.6-20.8-40-22.7-46.4-28.2-46.4-28.2 35.2-10.6 47.5-24 26.7-47.2 31-52.3 9.7-14.8 12-17.6-1.1-4-3.7-.7-19 14.3-28.7 18.3-31.4 14.8-39.1 26c0 0 12.3-38.5 8.9-60s-9.9-48.4-13.1-63-1.4-28.6-4.6-27.7-8.8 30.9-13.9 43.6-26.6 44.6-22.2 81c0 0-17.5-47.9-41.2-64.7s-57.9-45-67-54.2-8.6-12.4-11.6-10.7 10 21.9 14.6 35.4 15.9 60.5 26.2 79.3c8.5 15.3 27.2 35.7 30.3 38.8z" fill="url(#a)"/></svg>