<svg xmlns="http://www.w3.org/2000/svg" viewBox="0 0 513.3 146"><defs><style>.cls-1,.cls-3{fill:#390e0c;}.cls-1,.cls-2{fill-rule:evenodd;}.cls-2,.cls-4{fill:#dc2b14;}</style></defs><title>logo</title><g id="レイヤー_2" data-name="レイヤー 2"><g id="レイヤー_2-2" data-name="レイヤー 2"><path class="cls-1" d="M459.5,45c.7,1,6.5,2.8,15.2,4.6s17.7,8.2,24.7,6.2c4.7-1.4,9.9-13.6,9.9-15.4v-.2c0-1.2-1-2.2-2.6-3.1-6.6-3.4-7.9-4.6-10.3-3.9-12.7,3.5-35.2,1.7-36.9,11.8"/><path class="cls-1" d="M459.5,69.8c.7,1,6.5,2.8,15.2,4.6s18.1,7.5,25.1,5.5c4.7-1.4,9.5-12.9,9.5-14.7V65c0-1.2-1-2.2-2.6-3.1-5-2.7-11.7-5.6-14.2-4.9-12.7,3.5-29.7,4.2-33,12.8"/><path class="cls-2" d="M499.8,20.4c-11.7,3.4-30.3,5.3-40.3,5.3h0V45c6.9,0,28-2.2,40.7-5.7a49,49,0,0,0,6.5-2.2c1.6-.7,2.6-1.4,2.6-2.2V15.6c0,1.8-4.8,3.5-9.5,4.8"/><path class="cls-2" d="M499.8,45.2a159.2,159.2,0,0,1-25.1,4.4c-5.8.6-11.2.9-15.2.9h0V69.8c6.9,0,28-2.2,40.7-5.7a49,49,0,0,0,6.5-2.2c1.6-.7,2.6-1.4,2.6-2.2V40.4c0,1.8-4.8,3.4-9.5,4.8"/><path class="cls-2" d="M499.8,70a159.2,159.2,0,0,1-25.1,4.4c-5.8.6-11.2.9-15.2.9V94.6c6.7,0,27.9-2.2,40.7-5.7,4.7-1.3,9.1-2.8,9.1-4.4V65.2c0,1.8-4.8,3.4-9.5,4.8"/><path class="cls-3" d="M236.1,50.8a30.5,30.5,0,0,0,12.6,2.6c12.3,0,17.5-6.1,17.5-13.2s-2.7-10-10.6-12.8c-5.8-2.1-8.1-2.5-8.1-5.3s2-3.6,6.4-3.5a19.4,19.4,0,0,1,8.4,2l2.7-8.4a29.2,29.2,0,0,0-11.9-2.4c-10.5,0-16.9,5.8-16.9,13.1s4.3,10.1,11.7,12.6c5.4,1.8,7,3,7,5.7s-1.3,3.1-6,3.1A25.6,25.6,0,0,1,238,41.5Zm58.8-6.5a16.1,16.1,0,0,1-5.7.5c-4.8-.4-6.8-3.8-6.8-7.6s2-7,6.6-7.9a9.2,9.2,0,0,1,5.7.9l2.1-7.8a24.1,24.1,0,0,0-7.8-1.2c-12.1,0-17.5,7.4-17.5,16.5s5.3,15.5,15.8,15.5a22.1,22.1,0,0,0,8.6-1.5Zm34.2,8.5a54.5,54.5,0,0,1-.4-7.9l.2-10.9c0-7.7-3.8-13.1-14.7-13.1a26.6,26.6,0,0,0-12.7,3l2.3,7.2a14.1,14.1,0,0,1,8.1-2.4c5,0,5.7,1,5.7,2.7h0c-11.5,0-18.4,3.7-18.4,12.2,0,5.2,3.9,10,10.5,10a10.9,10.9,0,0,0,8.9-4h.2l.6,3.2ZM317.9,41.4a6.1,6.1,0,0,1-.1,1.4,4.6,4.6,0,0,1-4.3,3,2.9,2.9,0,0,1-3.2-3.1c0-3.2,3.3-4.2,7.6-4.1Zm64.2,11.4a54.5,54.5,0,0,1-.4-7.9l.2-10.9c0-7.7-3.8-13.1-14.7-13.1a26.6,26.6,0,0,0-12.7,3l2.3,7.2a14.1,14.1,0,0,1,8.1-2.4c5,0,5.7,1,5.7,2.7h0c-11.5,0-18.4,3.7-18.4,12.2,0,5.2,3.9,10,10.5,10a10.9,10.9,0,0,0,8.9-4h.2l.6,3.2ZM370.9,41.4a6.1,6.1,0,0,1-.1,1.4,4.6,4.6,0,0,1-4.3,3,2.8,2.8,0,0,1-3.1-3.1c0-3.2,3.3-4.2,7.5-4.1ZM336.1,52.6H347V8.1H336.1Z"/><path class="cls-3" d="M258,104h9.8V89.7l3.8-4.6L282.3,104h11.5L278.6,78.8l14.5-18.6H280.9L271,74.7l-3,4.8h-.2V60.2H258Zm66-18.8c0-7.5-3.3-13.8-13.9-13.8a25,25,0,0,0-12.3,2.9l1.8,6.3a17.9,17.9,0,0,1,8.8-2.4c4.8,0,5.7,2.4,5.7,4.2v.4c-11.2,0-18.6,3.9-18.6,12.2,0,5,3.8,9.7,10.3,9.7a11.7,11.7,0,0,0,9.1-3.9h.2l.5,3.2h8.9a41.2,41.2,0,0,1-.5-7.7Zm-9.5,7.2a8.8,8.8,0,0,1-.2,1.7,5.6,5.6,0,0,1-5.2,3.6c-2.2,0-3.9-1.2-3.9-3.7s4.1-5,9.3-5ZM331.9,104h9.8V85.7a6,6,0,0,1,.4-2.5,5.4,5.4,0,0,1,5-3.7c3.6,0,5,2.8,5,6.9V104H362V85.2c0-9.4-4.9-13.7-11.4-13.7a11.4,11.4,0,0,0-9.8,5.1h-.2l-.4-4.4h-8.6c.1,2.9.3,6.2.3,10.1Zm36.2-1.6a22.4,22.4,0,0,0,10.3,2.3c9,0,13.7-4.4,13.7-10.3s-2.6-7.8-8.6-9.9c-3.9-1.3-5.1-2.1-5.1-3.7s1.3-2.5,3.7-2.5a15.4,15.4,0,0,1,6.9,1.8l1.7-6.8a20.7,20.7,0,0,0-8.9-1.9c-7.9,0-12.9,4.5-12.9,10.5-.1,3.8,2.4,7.3,9.1,9.5,3.6,1.3,4.6,2.1,4.6,3.7s-1.3,2.6-4.2,2.6a19.8,19.8,0,0,1-8.6-2.3Zm56.4-17.2c0-7.5-3.3-13.8-13.9-13.8a25,25,0,0,0-12.3,2.9l1.8,6.3a17.9,17.9,0,0,1,8.8-2.4c4.8,0,5.7,2.4,5.7,4.2v.4C403.4,82.8,396,86.7,396,95c0,5,3.8,9.7,10.3,9.7a11.7,11.7,0,0,0,9.1-3.9h.2l.5,3.2H425a41.2,41.2,0,0,1-.5-7.7ZM415,92.4a8.8,8.8,0,0,1-.2,1.7,5.5,5.5,0,0,1-5.2,3.6c-2.2,0-3.8-1.2-3.8-3.7s4-5,9.2-5ZM442.2,104V72.2h-9.8V104Zm-4.8-45.6a5,5,0,0,0-5.3,4.9,4.9,4.9,0,0,0,5.1,5c3.4,0,5.4-2.2,5.4-5A4.9,4.9,0,0,0,437.4,58.4Z"/><path class="cls-3" d="M266.3,142.1a16.1,16.1,0,0,0,7.6,1.7c6.7,0,10.2-3.2,10.2-7.6s-2-5.7-6.4-7.3c-2.9-1-3.8-1.6-3.8-2.7s1-1.9,2.8-1.9a12.1,12.1,0,0,1,5,1.3l1.3-5a15.5,15.5,0,0,0-6.6-1.4c-5.8,0-9.5,3.4-9.5,7.7-.1,2.8,1.8,5.5,6.6,7.1,2.8.9,3.5,1.5,3.5,2.7s-.9,2-3.1,2a14.2,14.2,0,0,1-6.3-1.8Zm43.2-22.3h-7.4v14a4.1,4.1,0,0,1-.2,1.6,4.1,4.1,0,0,1-3.7,2.5c-2.5,0-3.6-2.1-3.6-5.5V119.8h-7.4v13.8c0,7.2,3.5,10.2,8.3,10.2a8.4,8.4,0,0,0,7.3-3.8h.2l.3,3.3h6.4c-.1-2-.2-4.5-.2-7.6Zm3.5,23.5h7.1V129.6a5.2,5.2,0,0,1,.3-1.8,3.7,3.7,0,0,1,3.4-2.7c2.3,0,3.4,2,3.4,5v13.2h7.1V129.5a5.7,5.7,0,0,1,.3-1.8,3.6,3.6,0,0,1,3.3-2.6c2.4,0,3.5,2,3.5,5.4v12.8h7.1V129.4c0-7-3.4-10.2-7.9-10.2a8.4,8.4,0,0,0-4.5,1.2,11.3,11.3,0,0,0-3,2.8H333a6.7,6.7,0,0,0-6.4-4,8.4,8.4,0,0,0-7.2,3.8h-.1l-.3-3.2h-6.2c.1,2,.2,4.5.2,7.5Zm38.9,0H359V129.6a3.6,3.6,0,0,1,.3-1.8,3.7,3.7,0,0,1,3.4-2.7c2.3,0,3.3,2,3.3,5v13.2h7.1V129.5a5.7,5.7,0,0,1,.3-1.8,3.7,3.7,0,0,1,3.4-2.6c2.3,0,3.5,2,3.5,5.4v12.8h7.1V129.4c0-7-3.5-10.2-8-10.2a8.1,8.1,0,0,0-4.4,1.2,11.6,11.6,0,0,0-3.1,2.8h-.1a6.7,6.7,0,0,0-6.4-4,8.2,8.2,0,0,0-7.1,3.8h-.1l-.4-3.2h-6.1c.1,2,.2,4.5.2,7.5Zm46.1,0V119.8h-7.3v23.5Zm-3.6-33.8a3.7,3.7,0,1,0-.1,7.4,3.7,3.7,0,1,0,.1-7.4Zm10.2,5.2v5.1h-3.2v5.4h3.2v9.6c0,3.3.6,5.6,2,7a7.4,7.4,0,0,0,5.4,2,17.6,17.6,0,0,0,4.8-.6v-5.6l-2.2.2c-2.2,0-2.9-1.3-2.9-4.1v-8.5h5.2v-5.4h-5.2V113Z"/><path class="cls-3" d="M426.8,143.3v-4.2l3.9-3.5c6.5-5.9,9.7-9.2,9.8-12.7s-1.5-4.4-4.9-4.4a10.6,10.6,0,0,0-6.4,2.5l-2-5.1a16.3,16.3,0,0,1,9.8-3.1c6.8,0,10.5,4,10.5,9.5s-3.6,9-8,12.9l-2.7,2.3h11.3v5.7Z"/><path class="cls-3" d="M472.2,128.2c0,9.3-3.7,15.6-11.4,15.6s-11.1-6.9-11.2-15.4,3.7-15.6,11.5-15.6S472.2,120,472.2,128.2Zm-15.5.2c-.1,6.9,1.6,10.1,4.3,10.1s4.2-3.4,4.2-10.2-1.4-10.2-4.2-10.2S456.6,121.4,456.7,128.4Z"/><path class="cls-3" d="M480.9,119.6h-.1l-5.7,2.7L474,117l7.9-3.6h5.8v29.9h-6.8Z"/><path class="cls-3" d="M490.7,135.5c0-3.6,2-6.1,5.3-7.5v-.2a7.1,7.1,0,0,1-4.3-6.5c0-5.1,4.5-8.5,10.5-8.5s9.9,4.1,9.9,7.7a7.1,7.1,0,0,1-4.3,6.6v.2a7.9,7.9,0,0,1,5.5,7.4c0,5.5-4.6,9.1-11.5,9.1S490.7,139.5,490.7,135.5Zm15.4-.2c0-2.7-1.9-4.2-4.7-5a4.6,4.6,0,0,0-3.6,4.5A4.1,4.1,0,0,0,502,139C504.5,139,506.1,137.4,506.1,135.3Zm-7.8-14.2c0,2,1.8,3.3,4.2,4a4.1,4.1,0,0,0,3-3.8,3.4,3.4,0,0,0-3.6-3.7A3.3,3.3,0,0,0,498.3,121.1Z"/><polygon class="cls-4" points="190.1 7 137.9 7 170.8 146 222.9 146 190.1 7"/><polygon class="cls-4" points="121.2 7 68.9 7 101.9 146 154 146 121.2 7"/><polygon class="cls-4" points="52.3 7 0 7 33 146 85.1 146 52.3 7"/><path class="cls-3" d="M32.4,138.2l-1.2.5L18.4,84.8c2.5-1.9,5-3.6,6.5-4.5a26.6,26.6,0,0,1,8.1-3l.2-.5a3.1,3.1,0,0,1,1.7-.5l1.3-1.1a7.2,7.2,0,0,1,3.2,1.1s2.4-.1,3.2-.8S44.8,72,44.8,72a4,4,0,0,1-1.4-.3c-.7-.3-1.3-3.5-1.3-3.5s-1.7,1.1-2.4.8-2.4-7.1-2.7-9.3H35.7v-.6H37c0-1.3,2.1-4.2,4.2-6.3H41c-.2-.3.4-.7.1-.9l-1.2.5a12.4,12.4,0,0,0,1-2l.3-.3h.3a.6.6,0,0,0,.6-.8.8.8,0,0,1-.7-1.1.5.5,0,0,0-.5.3l.3.5c-.4-.1-.6.5-.5.9a.7.7,0,0,1-.6-.3.9.9,0,0,1-.4,1.1,2.3,2.3,0,0,1-.5-2.1.4.4,0,0,1-.5-.3c0-.3.4-.4.6-.3l-.6-.8a4.7,4.7,0,0,0,2.4.5h.3c.1-.1.1-.2.2-.4a.6.6,0,0,1,.7-.3.7.7,0,0,1-.1-.9c-.1.2.3.3.5.2s.1-.5.1-.7.7.5.4.8a1,1,0,0,0,1-.9,2.9,2.9,0,0,1,2.4-.2c.6.2,1.2.7.9,1.2l.8-.3c0-.2-.1-.3-.3-.4l1.2-.3a1.6,1.6,0,0,0,1,.8,1,1,0,0,0-.5,1,.7.7,0,0,1,.8-.4,3.4,3.4,0,0,0,.1,1c.4.1.8-.4.7-.8a.6.6,0,0,0,.8-.3.6.6,0,0,0-.3-.7c-.2-.2-.5-.1-.7-.3a.6.6,0,0,1,.1-.7l.7-.2a1.3,1.3,0,0,1,1.4.5.4.4,0,0,1,.5-.2.5.5,0,0,1,0,.5A1.2,1.2,0,0,1,55,46.8l.2-.6.7.2a.8.8,0,0,0-.1,1.1.9.9,0,0,1,1.3-.4c-.2.1,0,.5.2.5a.9.9,0,0,0,.7-.3,6.6,6.6,0,0,0,.1,1.4c.3.1.6-.6.9-.5s-.3,1.2.1,1.5h.5l-.3.8a2.3,2.3,0,0,0,1.4.4c.2-.5,1-.6,1.5-.3s.2.3.4.3a.2.2,0,0,0,.3,0,6.4,6.4,0,0,0,2.4-1,.5.5,0,0,1-.1.6,13.6,13.6,0,0,1,3.5.1c-.4.1-.2.9.3,1.1s1,.2,1.2.6-.6.2-.8,0a4.1,4.1,0,0,0-3.4-.7,4.2,4.2,0,0,1,1.7,1,1.6,1.6,0,0,1-1-.2,5.5,5.5,0,0,0-3.8,0v1.4h-.8v-1l-.3.2-1.9,1.3c.1.2.1.4.2.6h5v1.1h-.2v3.2h-.3v.6h-.3V57.5h-.2v2.2h-.3v-.3h-.3v.5l-.2-.2-.3.2-.3-1.6v1.6h-.2l-.3-.2-.3-.6V56.2h-.2l-.3.8v1l-.3.3v1.4h-.3v-.8h-.2v1h0v1.4c0,3.9-.3,4-.3,4a2.6,2.6,0,0,1-.8,2.4c0,3.1-.6,3.4-1.6,4.8a38.9,38.9,0,0,1-2.7,3.8,2.5,2.5,0,0,1-1.6.8l.5.8c.5-.1,1.4,1.3,2.2,2.1A34.8,34.8,0,0,0,59,82.4c1,1.1,1,4.3,1,4.3s.3,3,.3,3c1,2.2,0,2.4,0,2.4s0,1.1,0,1.1-.3,2.4-.3,2.4,0,2.6,0,2.6a1.3,1.3,0,0,1,.8.3c.4.3.3,1.6.3,1.6s.2-.1.3,1.1a9.4,9.4,0,0,1,0,1.9c.5,0,.3,1.6.3,1.6s.3.7,0,2.9a35.4,35.4,0,0,0-.3,5.7c.3,0,.5.4.8,1.3a28.5,28.5,0,0,1,.3,2.9c.1,1,.8,5.2.8,6.2s-.3,1.1-.3,1.1v.2s.9,1.1.8,1.4a9.2,9.2,0,0,1-1.9,1.3l1.1,3c.2.8.3,1.8.5,2.9s.6,1.9.6,2.2-.4.3-.6.8-1,0-1,0v.2c-.5.4-1.4,0-1.4,0l-.3.3a1.3,1.3,0,0,1-1.3-.3l-1.1-1s0,.2-.5.2-1.5-.8-1.9-1.3a3,3,0,0,1-.5-.8l-.5-.3c-1.1,1.4-6.3,1.8-8.4,2.2a46.8,46.8,0,0,1-5.9.2,35.7,35.7,0,0,1-4.5,1.6A9.4,9.4,0,0,1,32.4,138.2Zm29.3,1.6,6.1-2.7c.4-.1,1-.8,1.6-1.1s2.1-.5,2.2-.8.1-.6,0-.8-.6-.2-1.1,0a28.7,28.7,0,0,1-3,1.4,21,21,0,0,0-3.7,1l-3.2,1.9c0,.1.5.7.5.8ZM43.3,18.9c-.6,0-2.7-1.1-3.8-1.3a9.5,9.5,0,0,0-2.9.2s.4-.4.4-.7.5-.9.3-.9a12,12,0,0,0-2.7.7L33.5,18l-.6-.7c-.1-.1-.9.5-.9,1.2l-1.3-.7L28.4,17l-.3-.2s-.2.2-.1.3a.4.4,0,0,0,.4.1,12.8,12.8,0,0,1,2.3.8l1.2.7c0,.1.1.1.1.2a5.5,5.5,0,0,0-2.2.9l1,.3a4,4,0,0,0-1.2,1.5c-.4.8-1.1,1.9-1.1,1.9A13.4,13.4,0,0,0,31,22.3l.6-.6a3,3,0,0,0,1.3,2.1,7.9,7.9,0,0,1,2.2,2.4,23.5,23.5,0,0,0,.7-2.3c.2-.5.6-1.8,0-2.5a8.8,8.8,0,0,0,3.9,2.7,12.1,12.1,0,0,1,3,2.1v-.6c0-.3-1.4-4.3-2.1-4.8a2.5,2.5,0,0,0-1.3-.7,11.7,11.7,0,0,0,2.5-.1,15.8,15.8,0,0,1,2.3-.6C44.6,19.4,43.8,19,43.3,18.9ZM24,48.8h-.3a4.6,4.6,0,0,0-.3-2.1c-.3-.7-1.4-1.6-1.5-1.9s-.5-.5-.5-.7-.2,0-.1.2a3.5,3.5,0,0,1,.3,1.3,3.1,3.1,0,0,0,.5,1.8,6.1,6.1,0,0,0-2.2-1.1L17.4,46c-.6,0-1.1-.3-1.1-.2s1.1.8,1.5,1.1a5.5,5.5,0,0,0,2.7,1.9,8.3,8.3,0,0,0-3,.7,17.9,17.9,0,0,1-2.9,1.8c-.4.2-.5.2-.5.3a11.4,11.4,0,0,0,1.5-.1c.6,0,2.5.2,3.3.1s1.7-.6,1.9-.6a6.5,6.5,0,0,0-2.3,1.7c-.7,1.1-1,2.3-1.4,2.7s-1,1.2-.9,1.3a14.2,14.2,0,0,0,2-1.2c.6-.3,2.3-.6,2.9-1.5a8.9,8.9,0,0,0,1.2-2,6.9,6.9,0,0,0-.5,2.6,14.9,14.9,0,0,1,.6,2.5c.1.5.2,1.2.3,1.2a18.3,18.3,0,0,1,.6-1.9c.3-.4,1.4-2.7,1.2-3.6a5.8,5.8,0,0,1-.3-1.3,9.4,9.4,0,0,0,1.4,1.9c.7.5,1.9,1.2,2,1.5s.2.1.2,0-.6-1.2-.7-1.6a4.6,4.6,0,0,0-1.9-3.2l.4.2a6,6,0,0,0,1.8-.1h1c0-.1-1.1-.5-1.3-.8A3.5,3.5,0,0,0,24,48.8Z"/><path class="cls-3" d="M114.7,118l11.2,22.9h6.2l-4.4-27.7h2.5l4.4-19.3h-10l-8.2-50.7L126.9,39l-12-4.8v-.4l6.2-19H121V12h-6.3V5.1h-1.6V2.5h-1V0h-3.6V2.5h-1V5.1h-1.6V12H99.6v2.8h.2l6,18.4-.2,1L93.7,39l10.5,4.2L96,93.9H89.5l9.2,38.7,7.2-14.6Zm-4.4-91.9a4.4,4.4,0,1,1-4.3,4.3A4.3,4.3,0,0,1,110.3,26.1Z"/><path class="cls-3" d="M189.8,138.7c3.9,3.2,20.2,1,27.7,1.9s16.4-2.9,16.4-2.9c12.4.7,15.9-8.8,16.6-12.2s10.5-6.5-.4-7.9a23.9,23.9,0,0,0-10,.7,19.6,19.6,0,0,0-1.6-2.2c-1.3-1.5-2.2-9.3-6.1-13.4s-5.8-2.7-5.8-2.7c-2.8-1.7-10.3-1.4-10.3-1.4l-1.9-9.2.7-.6c4.8-.7,7.5-5.5,7.9-7.6a25,25,0,0,1,1.1-3.9c.9-1.9.5-3.8.9-4.3s.6-3.8.2-4.8-1-1.3-1.7-1.2h0c.2-1.4.4-2.8.5-4.2a18.9,18.9,0,0,0,1.2-2.2,9.9,9.9,0,0,0,2.3-2.9c1.5-2.4.9-4.3-.2-4.4s-1.6,1-2.6,2.1a1,1,0,0,0-.5-1c-.7-.2-1.9-.2-2.5,1.6a4.3,4.3,0,0,0-.1.5V54.9c.1-2.1-.4-2.2-1.7-2.4s-2.1,3.2-2.1,3.2-.9-.8-1.9-.7-1.9,5-2.2,6.2a18.5,18.5,0,0,0-.4,3.5v3.5c-.8.4-.6,2.9-1.2,3.1A13.3,13.3,0,0,0,210,74c-.3-1-1.7-1-1.7-1a11.5,11.5,0,0,1-1.5-2.8,5.6,5.6,0,0,0-2.9-2.7c-1.3-1.4-7.6-5.7-7.6-5.7s-.6-1.5-.6-1.5.5-2.5.5-2.5c2.4.3,2.5-.9,2.5-.9,5-1,3.2-1.6,4.5-3.6S205,41.7,205,41.7s.5-1.8.5-2.1.6-.5,1-1.5a3.7,3.7,0,0,0,.2-1.4.7.7,0,0,0,.7-.2c.2-.2.1-.8,0-1.1s.7-.1.7-.4,0-.4,0-.7h.1c.2-.1.1-.6,0-.9s.2-.1.2-.2v-.6a.7.7,0,0,0-.4-.6,2.2,2.2,0,0,0,.3-1,.3.3,0,0,0-.3-.3c0-.2-.1-.3-.1-.4h.3l-.4-1.1a.6.6,0,0,0-.6-.3,1.4,1.4,0,0,0,0-.9l-.2-.2a2.4,2.4,0,0,0-.3-1h-.4a4.3,4.3,0,0,0-.1-.5.8.8,0,0,0-.6-.2,1.3,1.3,0,0,0-.1-.9c-.2-.2-.6-.2-1,.1l-.2-.3h0c.4-.3.2-1.1,0-1.4h-.5c0-.2-.1-.5-.2-.5a.5.5,0,0,0-.4-.2.8.8,0,0,0-.2-.5.6.6,0,0,0-.8,0,1.8,1.8,0,0,0-.4-1l-.4-.3h0l-.4-.4-.5-.3c-.2-.1-.4,0-.6.2a1.9,1.9,0,0,0-.5-1,.7.7,0,0,0-.7.2c0-.4-.4-.8-.5-1a.6.6,0,0,0-.8.4.1.1,0,0,0-.1-.1c.1-.4-.4-1-.6-1.1a.7.7,0,0,0-.6.1,2.2,2.2,0,0,0-.6-.7c-.2-.1-.3,0-.5.1h0a.5.5,0,0,0-.6-.1,1.9,1.9,0,0,0-.7-.6.9.9,0,0,0-.6.3,1,1,0,0,0-.7-.6.7.7,0,0,0-.7.6h0a.9.9,0,0,0-.6-.8h-.5c-.3,0-.4.3-.4.7h-.1c-.1-.4-.8-.6-1.1-.5s-.4.3-.4.7h-.3a1.5,1.5,0,0,0-1.1-.2.8.8,0,0,0-.3.7,1.2,1.2,0,0,0-1-.1.9.9,0,0,0-.2.9h-.1a1.3,1.3,0,0,0-1.2-.1.6.6,0,0,0-.2.7,1.5,1.5,0,0,0-1,.1c-.3.2-.3.5-.1.9a1,1,0,0,0-1.1.1q-.3.3,0,.9c-.1,0-.1,0-.1.1s-1.1-.2-1.3,0-.2.5,0,.8a1.7,1.7,0,0,0-1.1.2c-.3.2-.2.6,0,.9h-.1c-.2-.3-1-.1-1.2.1s-.2.5,0,.9h-.1a1.2,1.2,0,0,0-1.2.2.9.9,0,0,0,0,.7h0a1,1,0,0,0-1,.3c-.2.2-.1.5,0,.7s-.1.1-.1.2a.8.8,0,0,0-.9.2l-.2.3h-.1c-.1.1,0,.4.3.6a1.6,1.6,0,0,0-1.1.5c-.2.3,0,.6.3.9h0c-.4-.1-1.1.5-1.2.8a.9.9,0,0,0,.4.7c-.3,0-.7.5-.7.8a2.2,2.2,0,0,1-.1.6c0,.1.4.1.8.2h0c-.4,0-.8.3-.8.6v.6c0,.2.2.4.6.4a1.1,1.1,0,0,0-.7.8v.6c0,.1.3.2.6.2h0a1.5,1.5,0,0,0-.7.9.6.6,0,0,0,.5.6.6.6,0,0,0-.6.5v.5a.7.7,0,0,0,.7.6h0c-.4,0-.9.7-.9,1a.7.7,0,0,0,.7.6c-.4.1-.7.8-.8,1.1s.4.6.8.6h0c-.5-.1-.8.7-.8,1s.3.6.8.6h0c-.4.1-.7.8-.7,1.1s.3.5.7.5a1.2,1.2,0,0,0-.6,1.1c0,.3.3.5.7.5h0c-.3.1-.5.8-.5,1.1s.2.3.4.4h0c0,.1-.1.1-.1.2s-.1,1.1.1,1.3.2.2.4.1h0v.2s-7.1-2-11.6.3-8.1,7.7-10.1,14l18.2,77,2,.3A37.5,37.5,0,0,0,189.8,138.7Z"/></g></g></svg>